Recursive Mono-Strict B.ufo
<glyph name="exclam" format="2">
	<unicode hex="0021"/>
	<advance width="600"/>
	<outline>
		<contour>
			<point x="354" y="290" type="line"/>
			<point x="362.9552238806" y="342.9850746269"/>
			<point x="381.0447761194" y="449.0149253731"/>
			<point x="390" y="502" type="qcurve"/>
			<point x="390" y="689" type="line" smooth="yes"/>
			<point x="390" y="694.223880597"/>
			<point x="383.4776119403" y="700"/>
			<point x="379" y="700" type="qcurve" smooth="yes"/>
			<point x="325.2686567164" y="700"/>
			<point x="240.5970149254" y="700"/>
			<point x="210" y="700" type="qcurve"/>
			<point x="210" y="671.6417910448"/>
			<point x="210" y="617.6119402985"/>
			<point x="210" y="590" type="qcurve" smooth="yes"/>
			<point x="210" y="502" type="line"/>
			<point x="234.6268656716" y="350.5074626866"/>
			<point x="245.0149253731" y="295.9850746269"/>
			<point x="248" y="293" type="qcurve" smooth="yes"/>
			<point x="249.4925373134" y="291.5074626866"/>
			<point x="253.0149253731" y="290"/>
			<point x="256" y="290" type="qcurve"/>
		</contour>
		<component base="period"/>
	</outline>
	<guideline x="0" y="0" angle="90" identifier="zKUrDpPJ1c"/>
	<guideline x="50" y="0" angle="90" identifier="X1QchTAMKR"/>
	<guideline x="100" y="0" angle="90" identifier="25wLQm7nSk"/>
	<guideline x="150" y="0" angle="90" identifier="YZFq3bOjxc"/>
	<guideline x="200" y="0" angle="90" identifier="xEXHXBPG4w"/>
	<guideline x="250" y="0" angle="90" identifier="lA4GWaKolc"/>
	<guideline x="300" y="0" angle="90" identifier="8ooa2W8CNN"/>
	<guideline x="350" y="0" angle="90" identifier="gtWfvzIzFN"/>
	<guideline x="400" y="0" angle="90" identifier="DUT7Zy1d4Q"/>
	<guideline x="450" y="0" angle="90" identifier="EVdqj4024y"/>
	<guideline x="500" y="0" angle="90" identifier="7e1OqN5m5N"/>
	<guideline x="550" y="0" angle="90" identifier="0KG9qj5B3K"/>
	<guideline x="600" y="0" angle="90" identifier="08vzICCu1P"/>
	<guideline x="0" y="-250" angle="0" identifier="2HY3igQOkJ"/>
	<guideline x="0" y="-200" angle="0" identifier="LyoGyuDqCl"/>
	<guideline x="0" y="-150" angle="0" identifier="pVwXxfCcPG"/>
	<guideline x="0" y="-100" angle="0" identifier="YLqG0dB5aa"/>
	<guideline x="0" y="-50" angle="0" identifier="FFAD7WbIdz"/>
	<guideline x="0" y="0" angle="0" identifier="PKGWbuy37D"/>
	<guideline x="0" y="50" angle="0" identifier="2nLMCGy6ym"/>
	<guideline x="0" y="100" angle="0" identifier="SPbTp8L1zQ"/>
	<guideline x="0" y="150" angle="0" identifier="cjtmdWtcak"/>
	<guideline x="0" y="200" angle="0" identifier="IslR6c2Ypm"/>
	<guideline x="0" y="250" angle="0" identifier="rAmmvdcjpS"/>
	<guideline x="0" y="300" angle="0" identifier="QnKsNFYpcs"/>
	<guideline x="0" y="350" angle="0" identifier="D3mL6Dhmrp"/>
	<guideline x="0" y="400" angle="0" identifier="PknU9pMIke"/>
	<guideline x="0" y="450" angle="0" identifier="VlI9FkeeTh"/>
	<guideline x="0" y="500" angle="0" identifier="IP2tdiuPKe"/>
	<guideline x="0" y="550" angle="0" identifier="4lIeJ9fhUO"/>
	<guideline x="0" y="600" angle="0" identifier="ebAKR0phM7"/>
	<guideline x="0" y="650" angle="0" identifier="ad4BaW9hSL"/>
	<guideline x="0" y="700" angle="0" identifier="5YwARGt4uq"/>
</glyph>
<glyph name="numbersign" format="2">
	<unicode hex="0023"/>
	<advance width="600"/>
	<outline>
		<contour>
			<point x="205" y="720" type="qcurve"/>
			<point x="168.4328358209" y="536.4179104478"/>
			<point x="93.5671641791" y="163.5820895522"/>
			<point x="57" y="-20" type="qcurve"/>
			<point x="83.1194029851" y="-20"/>
			<point x="135.8805970149" y="-20"/>
			<point x="162" y="-20" type="qcurve"/>
			<point x="167.223880597" y="-20"/>
			<point x="174.5074626866" y="-16.4626865672"/>
			<point x="176" y="-9" type="qcurve" smooth="yes"/>
			<point x="211.8208955224" y="169.3582089552"/>
			<point x="284.9253731343" y="530.6417910448"/>
			<point x="320" y="709" type="qcurve" smooth="yes"/>
			<point x="321.4925373134" y="715.7164179104"/>
			<point x="316.223880597" y="720"/>
			<point x="311" y="720" type="qcurve" smooth="yes"/>
			<point x="285.6268656716" y="720"/>
			<point x="230.3731343284" y="720"/>
		</contour>
		<contour>
			<point x="431" y="720" type="qcurve"/>
			<point x="394.4328358209" y="536.4179104478"/>
			<point x="319.5671641791" y="163.5820895522"/>
			<point x="283" y="-20" type="qcurve"/>
			<point x="307.6268656716" y="-20"/>
			<point x="363.3731343284" y="-20"/>
			<point x="388" y="-20" type="qcurve"/>
			<point x="393.223880597" y="-20"/>
			<point x="400.5074626866" y="-16.4626865672"/>
			<point x="402" y="-9" type="qcurve" smooth="yes"/>
			<point x="437.8208955224" y="169.3582089552"/>
			<point x="510.9253731343" y="530.6417910448"/>
			<point x="546" y="709" type="qcurve" smooth="yes"/>
			<point x="547.4925373134" y="715.7164179104"/>
			<point x="542.223880597" y="720"/>
			<point x="537" y="720" type="qcurve" smooth="yes"/>
			<point x="512.3731343284" y="720"/>
			<point x="454.8805970149" y="720"/>
		</contour>
		<contour>
			<point x="582" y="435" type="line"/>
			<point x="582" y="444.7014925373"/>
			<point x="582" y="529.2985074627"/>
			<point x="582" y="539" type="qcurve" smooth="yes"/>
			<point x="582" y="541.2388059701"/>
			<point x="580.4925373134" y="545.5074626866"/>
			<point x="579" y="547" type="qcurve" smooth="yes"/>
			<point x="577.5074626866" y="548.4925373134"/>
			<point x="573.2388059701" y="550"/>
			<point x="571" y="550" type="qcurve"/>
			<point x="62" y="550" type="line"/>
			<point x="62" y="540.2985074627"/>
			<point x="62" y="455.7014925373"/>
			<point x="62" y="446" type="qcurve" smooth="yes"/>
			<point x="62" y="441.5223880597"/>
			<point x="68.5223880597" y="435"/>
			<point x="73" y="435" type="qcurve"/>
		</contour>
		<contour>
			<point x="22" y="255" type="line"/>
			<point x="22" y="245.2985074627"/>
			<point x="22" y="170.7014925373"/>
			<point x="22" y="161" type="qcurve" smooth="yes"/>
			<point x="22" y="158.7611940299"/>
			<point x="23.5074626866" y="154.4925373134"/>
			<point x="25" y="153" type="qcurve" smooth="yes"/>
			<point x="26.4925373134" y="151.5074626866"/>
			<point x="30.7611940299" y="150"/>
			<point x="33" y="150" type="qcurve"/>
			<point x="542" y="150" type="line"/>
			<point x="542" y="159.7014925373"/>
			<point x="542" y="234.2985074627"/>
			<point x="542" y="244" type="qcurve" smooth="yes"/>
			<point x="542" y="248.4776119403"/>
			<point x="535.4776119403" y="255"/>
			<point x="531" y="255" type="qcurve"/>
		</contour>
	</outline>
</glyph>
<glyph name="two" format="2">
	<unicode hex="0032"/>
	<advance width="600"/>
	<outline>
		<contour>
			<point x="534" y="567.1184503017"/>
			<point x="463.1044776119" y="596"/>
			<point x="384" y="596" type="qcurve"/>
			<point x="384" y="582.8591823491"/>
			<point x="384" y="548.3582089552"/>
			<point x="384" y="520" type="qcurve" smooth="yes"/>
			<point x="384" y="493.1343283582"/>
			<point x="341.1044776119" y="441.4925373134"/>
			<point x="262" y="390" type="qcurve" smooth="yes"/>
			<point x="148.5671641791" y="316.1194029851"/>
			<point x="60" y="181.8805970149"/>
			<point x="60" y="108" type="qcurve" smooth="yes"/>
			<point x="60" y="97.552238806"/>
			<point x="133.6417910448" y="92"/>
			<point x="212" y="92" type="qcurve"/>
			<point x="212" y="156.1791044776"/>
			<point x="259.6417910448" y="221"/>
			<point x="338" y="271" type="qcurve" smooth="yes"/>
			<point x="443.9701492537" y="338.9104477612"/>
			<point x="534" y="445.1044776119"/>
			<point x="534" y="516" type="qcurve" smooth="yes"/>
			<point x="534" y="544" type="line" smooth="yes"/>
		</contour>
		<contour>
			<point x="550" y="0" type="line"/>
			<point x="550" y="28.3582089552"/>
			<point x="550" y="92.9402985075"/>
			<point x="550" y="131" type="qcurve" smooth="yes"/>
			<point x="550" y="136.9701492537"/>
			<point x="544.9701492537" y="142"/>
			<point x="539" y="142" type="qcurve" smooth="yes"/>
			<point x="190" y="142" type="line" smooth="yes"/>
			<point x="157.1641791045" y="142"/>
			<point x="89.8507462687" y="125.9104477612"/>
			<point x="60" y="108" type="qcurve"/>
			<point x="60" y="82.6268656716"/>
			<point x="60" y="46.0746268657"/>
			<point x="60" y="11" type="qcurve" smooth="yes"/>
			<point x="60" y="5.0298507463"/>
			<point x="65.0298507463" y="0"/>
			<point x="71" y="0" type="qcurve" smooth="yes"/>
		</contour>
		<contour>
			<point x="300" y="720" type="qcurve" smooth="yes"/>
			<point x="220.8955223881" y="720"/>
			<point x="98.9253731343" y="687.9253731343"/>
			<point x="84" y="673" type="qcurve" smooth="yes"/>
			<point x="81.7611940299" y="670.7611940299"/>
			<point x="80" y="665.7313432836"/>
			<point x="80" y="662" type="qcurve" smooth="yes"/>
			<point x="80" y="620.2089552239"/>
			<point x="80" y="558.3432835821"/>
			<point x="80" y="527" type="qcurve"/>
			<point x="100" y="527" type="line"/>
			<point x="143.2835820896" y="548.6417910448"/>
			<point x="241.2835820896" y="570"/>
			<point x="298" y="570" type="qcurve" smooth="yes"/>
			<point x="345.0149253731" y="570"/>
			<point x="384" y="551.7648123021"/>
			<point x="384" y="532" type="qcurve" smooth="yes"/>
			<point x="384" y="514.2413356944"/>
			<point x="384" y="486.1963066026"/>
			<point x="384" y="478" type="qcurve"/>
			<point x="458.6263586843" y="478.7462635869"/>
			<point x="534" y="519.3731343284"/>
			<point x="534" y="544" type="qcurve" smooth="yes"/>
			<point x="534" y="625.3432835821"/>
			<point x="409.7014925373" y="720"/>
		</contour>
	</outline>
</glyph>
<glyph name="three" format="2">
	<unicode hex="0033"/>
	<advance width="600"/>
	<outline>
		<contour>
			<point x="275" y="570" type="qcurve" smooth="yes"/>
			<point x="345.0298507463" y="570"/>
			<point x="390" y="531.1194029851"/>
			<point x="390" y="505" type="qcurve" smooth="yes"/>
			<point x="390" y="486.3432835821"/>
			<point x="390" y="464.1791044776"/>
			<point x="390" y="450" type="qcurve"/>
			<point x="448.368869936" y="450"/>
			<point x="540" y="482.9701492537"/>
			<point x="540" y="527" type="qcurve"/>
			<point x="540" y="554" type="line" smooth="yes"/>
			<point x="540" y="630.1194029851"/>
			<point x="395.1791044776" y="720"/>
			<point x="281" y="720" type="qcurve" smooth="yes"/>
			<point x="207.1194029851" y="720"/>
			<point x="83.2089552239" y="695.2089552239"/>
			<point x="75" y="687" type="qcurve" smooth="yes"/>
			<point x="73.5074626866" y="685.5074626866"/>
			<point x="73" y="682.2388059701"/>
			<point x="73" y="680" type="qcurve" smooth="yes"/>
			<point x="73" y="640.447761194"/>
			<point x="73" y="571.1194029851"/>
			<point x="73" y="545" type="qcurve"/>
			<point x="93" y="545" type="line"/>
			<point x="136.2835820896" y="557.6865671642"/>
			<point x="214.552238806" y="570"/>
		</contour>
		<contour>
			<point x="161" y="338" type="qcurve" smooth="yes"/>
			<point x="326.671641791" y="338"/>
			<point x="540" y="413.5671641791"/>
			<point x="540" y="527" type="qcurve" smooth="yes"/>
			<point x="540" y="546.4029850746"/>
			<point x="441.4925373134" y="580"/>
			<point x="390" y="580" type="qcurve"/>
			<point x="390" y="561.3432835821"/>
			<point x="390" y="523.6567164179"/>
			<point x="390" y="505" type="qcurve" smooth="yes"/>
			<point x="390" y="470.671641791"/>
			<point x="313.4328358209" y="428"/>
			<point x="150" y="428" type="qcurve"/>
			<point x="150" y="411.5820895522"/>
			<point x="150" y="365.4179104478"/>
			<point x="150" y="349" type="qcurve" smooth="yes"/>
			<point x="150" y="344.5223880597"/>
			<point x="156.5223880597" y="338"/>
		</contour>
		<contour>
			<point x="161" y="288" type="qcurve" smooth="yes"/>
			<point x="309.5074626866" y="288"/>
			<point x="400" y="244.552238806"/>
			<point x="400" y="205" type="qcurve" smooth="yes"/>
			<point x="400" y="186.3432835821"/>
			<point x="400" y="161.8656716418"/>
			<point x="400" y="135" type="qcurve"/>
			<point x="470.1492537313" y="135"/>
			<point x="550" y="167.9552238806"/>
			<point x="550" y="209" type="qcurve" smooth="yes"/>
			<point x="550" y="309"/>
			<point x="325.3731343284" y="381"/>
			<point x="150" y="381" type="qcurve"/>
			<point x="150" y="360.8507462687"/>
			<point x="150" y="316.9104477612"/>
			<point x="150" y="299" type="qcurve" smooth="yes"/>
			<point x="150" y="293.0298507463"/>
			<point x="155.776119403" y="288"/>
		</contour>
		<contour>
			<point x="275" y="130" type="qcurve" smooth="yes"/>
			<point x="207.8358208955" y="130"/>
			<point x="120.7611940299" y="142.0895522388"/>
			<point x="73" y="160" type="qcurve"/>
			<point x="53" y="160" type="line"/>
			<point x="53" y="130.1492537313"/>
			<point x="53" y="59.552238806"/>
			<point x="53" y="20" type="qcurve" smooth="yes"/>
			<point x="53" y="17.7611940299"/>
			<point x="53.5074626866" y="14.4925373134"/>
			<point x="55" y="13" type="qcurve" smooth="yes"/>
			<point x="63.9552238806" y="4.0447761194"/>
			<point x="199.6567164179" y="-20"/>
			<point x="281" y="-20" type="qcurve" smooth="yes"/>
			<point x="402.6417910448" y="-20"/>
			<point x="550" y="78.2388059701"/>
			<point x="550" y="176" type="qcurve" smooth="yes"/>
			<point x="550" y="209" type="line" smooth="yes"/>
			<point x="550" y="244.0746268657"/>
			<point x="459.966843127" y="271.7995579084"/>
			<point x="400" y="271" type="qcurve"/>
			<point x="400" y="252.3432835821"/>
			<point x="400" y="225.1492537313"/>
			<point x="400" y="205" type="qcurve" smooth="yes"/>
			<point x="400" y="175.1492537313"/>
			<point x="351.0088446656" y="130"/>
		</contour>
	</outline>
</glyph>
<glyph name="six" format="2">
	<unicode hex="0036"/>
	<advance width="600"/>
	<outline>
		<contour>
			<point x="186" y="121" type="qcurve"/>
			<point x="186" y="39.6567164179"/>
			<point x="264.2698319426" y="-21"/>
			<point x="308" y="-21" type="qcurve"/>
			<point x="415.4069486592" y="-21"/>
			<point x="554" y="103.9552238806"/>
			<point x="554" y="195" type="qcurve" smooth="yes"/>
			<point x="554" y="255" type="line" smooth="yes"/>
			<point x="554" y="287.8358208955"/>
			<point x="463.9701492537" y="329"/>
			<point x="408" y="329" type="qcurve"/>
			<point x="408" y="302.1343283582"/>
			<point x="408" y="263.8656716418"/>
			<point x="408" y="237" type="qcurve" smooth="yes"/>
			<point x="408" y="213" type="line" smooth="yes"/>
			<point x="408" y="173.7675906184"/>
			<point x="354.9850746269" y="121"/>
			<point x="302" y="121" type="qcurve" smooth="yes"/>
			<point x="265.4328358209" y="121"/>
			<point x="207.6417910448" y="121"/>
		</contour>
		<contour>
			<point x="230" y="570" type="qcurve"/>
			<point x="257.6119402985" y="570"/>
			<point x="298.7313432836" y="570"/>
			<point x="335" y="570" type="qcurve" smooth="yes"/>
			<point x="389.4776119403" y="570"/>
			<point x="457.447761194" y="554.9253731343"/>
			<point x="497" y="540" type="qcurve"/>
			<point x="517" y="540" type="line"/>
			<point x="517" y="569.8507462687"/>
			<point x="517" y="640.447761194"/>
			<point x="517" y="680" type="qcurve" smooth="yes"/>
			<point x="517" y="682.2388059701"/>
			<point x="516.4925373134" y="685.5074626866"/>
			<point x="515" y="687" type="qcurve" smooth="yes"/>
			<point x="507.4397741817" y="694.5602258183"/>
			<point x="413.658267106" y="720"/>
			<point x="357" y="720" type="qcurve" smooth="yes"/>
			<point x="269.458698872" y="720"/>
			<point x="230" y="623.7313432836"/>
		</contour>
		<contour>
			<point x="50" y="401" type="qcurve" smooth="yes"/>
			<point x="50" y="258" type="line" smooth="yes"/>
			<point x="50" y="124.4179104478"/>
			<point x="188.5970149254" y="-21"/>
			<point x="308" y="-21" type="qcurve" smooth="yes"/>
			<point x="318.447761194" y="-21"/>
			<point x="326.6268656716" y="31.447761194"/>
			<point x="302" y="121" type="qcurve"/>
			<point x="250.5074626866" y="121"/>
			<point x="204" y="183.5970149254"/>
			<point x="204" y="253" type="qcurve" smooth="yes"/>
			<point x="204" y="407" type="line" smooth="yes"/>
			<point x="204" y="497.2985074627"/>
			<point x="266.3432835821" y="570"/>
			<point x="335" y="570" type="qcurve"/>
			<point x="373.0597014925" y="666.2686567164"/>
			<point x="374.1641791045" y="720"/>
			<point x="357" y="720" type="qcurve" smooth="yes"/>
			<point x="261.4776119403" y="720"/>
			<point x="50" y="601.7462686567"/>
		</contour>
		<contour>
			<point x="362" y="448" type="qcurve" smooth="yes"/>
			<point x="312" y="448"/>
			<point x="229.3731343284" y="413.3731343284"/>
			<point x="204" y="388" type="qcurve" smooth="yes"/>
			<point x="194.2985074627" y="378.2985074627"/>
			<point x="187" y="335.4179104478"/>
			<point x="187" y="269" type="qcurve"/>
			<point x="215.3582089552" y="292.1343283582"/>
			<point x="278.9253731343" y="314"/>
			<point x="314" y="314" type="qcurve" smooth="yes"/>
			<point x="363.2537313433" y="314"/>
			<point x="408" y="277.2985074627"/>
			<point x="408" y="237" type="qcurve" smooth="yes"/>
			<point x="408" y="224.3134328358"/>
			<point x="408" y="201.4626865672"/>
			<point x="408" y="194" type="qcurve"/>
			<point x="500.5373134328" y="194"/>
			<point x="554" y="240.8208955224"/>
			<point x="554" y="255" type="qcurve" smooth="yes"/>
			<point x="554" y="343.8059701493"/>
			<point x="447.0746268657" y="448"/>
		</contour>
	</outline>
</glyph>
<glyph name="equal" format="2">
	<unicode hex="003D"/>
	<advance width="600"/>
	<outline>
		<contour>
			<point x="60" y="500" type="line"/>
			<point x="60" y="465.671641791"/>
			<point x="60" y="403.328358209"/>
			<point x="60" y="369" type="qcurve" smooth="yes"/>
			<point x="60" y="366.7611940299"/>
			<point x="61.5074626866" y="362.4925373134"/>
			<point x="63" y="361" type="qcurve" smooth="yes"/>
			<point x="64.4925373134" y="359.5074626866"/>
			<point x="68.7611940299" y="358"/>
			<point x="71" y="358" type="qcurve" smooth="yes"/>
			<point x="540" y="358" type="line"/>
			<point x="540" y="392.328358209"/>
			<point x="540" y="454.671641791"/>
			<point x="540" y="489" type="qcurve" smooth="yes"/>
			<point x="540" y="493.4776119403"/>
			<point x="533.4776119403" y="500"/>
			<point x="529" y="500" type="qcurve" smooth="yes"/>
		</contour>
		<contour>
			<point x="540" y="98" type="line"/>
			<point x="540" y="132.328358209"/>
			<point x="540" y="194.671641791"/>
			<point x="540" y="229" type="qcurve" smooth="yes"/>
			<point x="540" y="231.2388059701"/>
			<point x="538.4925373134" y="235.5074626866"/>
			<point x="537" y="237" type="qcurve" smooth="yes"/>
			<point x="535.5074626866" y="238.4925373134"/>
			<point x="531.2388059701" y="240"/>
			<point x="529" y="240" type="qcurve" smooth="yes"/>
			<point x="60" y="240" type="line"/>
			<point x="60" y="205.671641791"/>
			<point x="60" y="143.328358209"/>
			<point x="60" y="109" type="qcurve" smooth="yes"/>
			<point x="60" y="104.5223880597"/>
			<point x="66.5223880597" y="98"/>
			<point x="71" y="98" type="qcurve" smooth="yes"/>
		</contour>
	</outline>
	<guideline x="0" y="0" angle="90" identifier="uuYvdEKJLZ"/>
	<guideline x="50" y="0" angle="90" identifier="WisKMndIOG"/>
	<guideline x="100" y="0" angle="90" identifier="7bIF5rTPKT"/>
	<guideline x="150" y="0" angle="90" identifier="yIK2aAfDsh"/>
	<guideline x="200" y="0" angle="90" identifier="220nFXMc8F"/>
	<guideline x="250" y="0" angle="90" identifier="Y9jSTwm8jg"/>
	<guideline x="300" y="0" angle="90" identifier="q0C3rNJy0x"/>
	<guideline x="350" y="0" angle="90" identifier="z9WQpMqEXm"/>
	<guideline x="400" y="0" angle="90" identifier="VShsYq4lcq"/>
	<guideline x="450" y="0" angle="90" identifier="OjQmwXcnIM"/>
	<guideline x="500" y="0" angle="90" identifier="Ylx5ItobTp"/>
	<guideline x="550" y="0" angle="90" identifier="soYcAcNqPj"/>
	<guideline x="600" y="0" angle="90" identifier="aO7bZeLHv5"/>
	<guideline x="0" y="-250" angle="0" identifier="nkItEnp7cf"/>
	<guideline x="0" y="-200" angle="0" identifier="lj1I1Zlkfy"/>
	<guideline x="0" y="-150" angle="0" identifier="kFI4EHceb3"/>
	<guideline x="0" y="-100" angle="0" identifier="fDxAQqWTBP"/>
	<guideline x="0" y="-50" angle="0" identifier="VuIQpbUaQw"/>
	<guideline x="0" y="0" angle="0" identifier="6gVGnHm3u6"/>
	<guideline x="0" y="50" angle="0" identifier="hMy026RXoL"/>
	<guideline x="0" y="100" angle="0" identifier="g8UFKP2Q6J"/>
	<guideline x="0" y="150" angle="0" identifier="5l4MjZbxSE"/>
	<guideline x="0" y="200" angle="0" identifier="2i4dDHHY9Z"/>
	<guideline x="0" y="250" angle="0" identifier="7Dy06lKFZO"/>
	<guideline x="0" y="300" angle="0" identifier="mGei1e1dHt"/>
	<guideline x="0" y="350" angle="0" identifier="vzdaBs69la"/>
	<guideline x="0" y="400" angle="0" identifier="PDWy7jr0Yj"/>
	<guideline x="0" y="450" angle="0" identifier="0JqKDMfsdV"/>
	<guideline x="0" y="500" angle="0" identifier="FnPUfaGa6u"/>
	<guideline x="0" y="550" angle="0" identifier="nSk2PoyJvi"/>
	<guideline x="0" y="600" angle="0" identifier="vLuNJ2fA2L"/>
	<guideline x="0" y="650" angle="0" identifier="bW9C0T3ZR8"/>
	<guideline x="0" y="700" angle="0" identifier="VJbiQWhWlw"/>
</glyph>
<glyph name="B" format="2">
	<unicode hex="0042"/>
	<advance width="600"/>
	<outline>
		<contour>
			<point x="230" y="11" type="qcurve"/>
			<point x="230" y="645" type="line" smooth="yes"/>
			<point x="230" y="651.7164179104"/>
			<point x="147.3880597015" y="660"/>
			<point x="75" y="660" type="qcurve"/>
			<point x="75" y="11" type="line"/>
			<point x="75" y="11"/>
			<point x="166.7661691543" y="11"/>
		</contour>
		<contour>
			<point x="30" y="700" type="qcurve"/>
			<point x="30" y="674.6268656716"/>
			<point x="30" y="603.328358209"/>
			<point x="30" y="569" type="qcurve" smooth="yes"/>
			<point x="30" y="566.7611940299"/>
			<point x="31.5074626866" y="562.4925373134"/>
			<point x="33" y="561" type="qcurve" smooth="yes"/>
			<point x="34.4925373134" y="559.5074626866"/>
			<point x="38.7611940299" y="558"/>
			<point x="41" y="558" type="qcurve"/>
			<point x="52.9402985075" y="558"/>
			<point x="88.0597014925" y="558"/>
			<point x="100" y="558" type="qcurve" smooth="yes"/>
			<point x="153.4825870647" y="558"/>
			<point x="262.5609756098" y="558"/>
			<point x="315" y="558" type="qcurve" smooth="yes"/>
			<point x="376.4619211634" y="558"/>
			<point x="424.9221112978" y="558"/>
			<point x="461" y="558" type="qcurve"/>
			<point x="461" y="618.447761194"/>
			<point x="382.8507462687" y="700"/>
			<point x="303" y="700" type="qcurve" smooth="yes"/>
			<point x="245.5373134328" y="700"/>
			<point x="91.1940298507" y="700"/>
		</contour>
		<contour>
			<point x="540" y="498" type="qcurve" smooth="yes"/>
			<point x="540" y="526" type="line" smooth="yes"/>
			<point x="540" y="586.447761194"/>
			<point x="438.0746268657" y="700"/>
			<point x="303" y="700" type="qcurve" smooth="yes"/>
			<point x="288.0746268657" y="700"/>
			<point x="291.8656716418" y="651.2835820896"/>
			<point x="315" y="558" type="qcurve"/>
			<point x="350.0746268657" y="558"/>
			<point x="385" y="529.3432835821"/>
			<point x="385" y="498" type="qcurve" smooth="yes"/>
			<point x="385" y="466" type="line" smooth="yes"/>
			<point x="385" y="435.4029850746"/>
			<point x="350.328358209" y="404"/>
			<point x="316" y="404" type="qcurve" smooth="yes"/>
			<point x="277.9235910002" y="404"/>
			<point x="223.488926336" y="404"/>
			<point x="187" y="404" type="qcurve"/>
			<point x="187" y="393.552238806"/>
			<point x="187" y="366.9402985075"/>
			<point x="187" y="355" type="qcurve" smooth="yes"/>
			<point x="187" y="350.5223880597"/>
			<point x="196.2835820896" y="344"/>
			<point x="203" y="344" type="qcurve" smooth="yes"/>
			<point x="355" y="344" type="line" smooth="yes"/>
			<point x="435.5348258707" y="344"/>
			<point x="540" y="430.8358208955"/>
		</contour>
		<contour>
			<point x="540" y="179" type="qcurve" smooth="yes"/>
			<point x="540" y="214" type="line" smooth="yes"/>
			<point x="540" y="279.671641791"/>
			<point x="423.8884524745" y="366"/>
			<point x="345" y="366" type="qcurve" smooth="yes"/>
			<point x="203" y="366" type="line" smooth="yes"/>
			<point x="198.5223880597" y="366"/>
			<point x="187" y="359.7313432836"/>
			<point x="187" y="356" type="qcurve"/>
			<point x="187" y="301" type="line"/>
			<point x="307" y="301" type="line"/>
			<point x="348.7910447761" y="301"/>
			<point x="385" y="271.8507462687"/>
			<point x="385" y="242" type="qcurve" smooth="yes"/>
			<point x="385" y="204" type="line" smooth="yes"/>
			<point x="385" y="175.6417910448"/>
			<point x="350.8883430946" y="142"/>
			<point x="314" y="142" type="qcurve" smooth="yes"/>
			<point x="283.4029850746" y="142"/>
			<point x="195.6104570316" y="142"/>
			<point x="150" y="142" type="qcurve"/>
			<point x="96.2686567164" y="60.6567164179"/>
			<point x="75" y="13.2388059701"/>
			<point x="75" y="11" type="qcurve" smooth="yes"/>
			<point x="75" y="5.776119403"/>
			<point x="80.776119403" y="0"/>
			<point x="86" y="0" type="qcurve" smooth="yes"/>
			<point x="320" y="0" type="line" smooth="yes"/>
			<point x="419.2537313433" y="0"/>
			<point x="540" y="88.7014925373"/>
		</contour>
	</outline>
</glyph>
<glyph name="D" format="2">
	<unicode hex="0044"/>
	<advance width="600"/>
	<outline>
		<contour>
			<point x="230" y="4" type="qcurve"/>
			<point x="230" y="639" type="line" smooth="yes"/>
			<point x="230" y="643.4776119403"/>
			<point x="187.0569029851" y="650"/>
			<point x="75" y="650" type="qcurve"/>
			<point x="75" y="11" type="line"/>
			<point x="75" y="6.5223880597"/>
			<point x="117.9430970149" y="4"/>
		</contour>
		<contour>
			<point x="40" y="700" type="qcurve"/>
			<point x="40" y="665.671641791"/>
			<point x="40" y="603.328358209"/>
			<point x="40" y="569" type="qcurve" smooth="yes"/>
			<point x="40" y="566.7611940299"/>
			<point x="41.5074626866" y="562.4925373134"/>
			<point x="43" y="561" type="qcurve" smooth="yes"/>
			<point x="44.4925373134" y="559.5074626866"/>
			<point x="48.7611940299" y="558"/>
			<point x="51" y="558" type="qcurve" smooth="yes"/>
			<point x="65.9253731343" y="558"/>
			<point x="98.5820895522" y="558"/>
			<point x="115" y="558" type="qcurve" smooth="yes"/>
			<point x="160.5223880597" y="558"/>
			<point x="257.1940298507" y="558"/>
			<point x="296" y="558" type="qcurve" smooth="yes"/>
			<point x="333.3134328358" y="558"/>
			<point x="377.8507462687" y="558"/>
			<point x="398" y="558" type="qcurve"/>
			<point x="398" y="620.6865671642"/>
			<point x="340" y="700"/>
			<point x="290" y="700" type="qcurve" smooth="yes"/>
			<point x="239.2537313433" y="700"/>
			<point x="91.4925373134" y="700"/>
		</contour>
		<contour>
			<point x="540" y="241" type="qcurve" smooth="yes"/>
			<point x="540" y="451" type="line" smooth="yes"/>
			<point x="540" y="564.3579208206"/>
			<point x="425.8208955224" y="700"/>
			<point x="290" y="700" type="qcurve" smooth="yes"/>
			<point x="285.5223880597" y="700"/>
			<point x="276.5970149254" y="652.0298507463"/>
			<point x="296" y="558" type="qcurve"/>
			<point x="346" y="558"/>
			<point x="385" y="508.456615229"/>
			<point x="385" y="443" type="qcurve" smooth="yes"/>
			<point x="385" y="241" type="line" smooth="yes"/>
			<point x="385" y="197.7164179104"/>
			<point x="335.2985074627" y="142"/>
			<point x="295" y="142" type="qcurve" smooth="yes"/>
			<point x="275.5970149254" y="142"/>
			<point x="143.0597014925" y="142"/>
			<point x="105" y="142" type="qcurve"/>
			<point x="90.0746268657" y="106.1791044776"/>
			<point x="75" y="52.7910447761"/>
			<point x="75" y="11" type="qcurve" smooth="yes"/>
			<point x="75" y="6.5223880597"/>
			<point x="81.5223880597" y="0"/>
			<point x="86" y="0" type="qcurve" smooth="yes"/>
			<point x="304" y="0" type="line" smooth="yes"/>
			<point x="413.7014925373" y="0"/>
			<point x="540" y="128.3134328358"/>
		</contour>
	</outline>
	<anchor name="top" x="290" y="711"/>
</glyph>
<glyph name="F" format="2">
	<unicode hex="0046"/>
	<advance width="600"/>
	<outline>
		<contour>
			<point x="255" y="0" type="qcurve"/>
			<point x="255" y="20.8955223881"/>
			<point x="255" y="71.1343283582"/>
			<point x="255" y="98" type="qcurve" smooth="yes"/>
			<point x="255" y="632" type="line" smooth="yes"/>
			<point x="255" y="640.2089552239"/>
			<point x="204.7014925373" y="649"/>
			<point x="95" y="649" type="qcurve"/>
			<point x="95" y="11" type="line" smooth="yes"/>
			<point x="95" y="6.5223880597"/>
			<point x="101.5223880597" y="0"/>
			<point x="106" y="0" type="qcurve" smooth="yes"/>
			<point x="143.3134328358" y="0"/>
			<point x="217.6865671642" y="0"/>
		</contour>
		<contour>
			<point x="50" y="700" type="line"/>
			<point x="50" y="665.671641791"/>
			<point x="50" y="603.328358209"/>
			<point x="50" y="569" type="qcurve" smooth="yes"/>
			<point x="50" y="566.7611940299"/>
			<point x="51.5074626866" y="562.4925373134"/>
			<point x="53" y="561" type="qcurve" smooth="yes"/>
			<point x="54.4925373134" y="559.5074626866"/>
			<point x="58.7611940299" y="558"/>
			<point x="61" y="558" type="qcurve"/>
			<point x="540" y="558" type="line"/>
			<point x="540" y="592.328358209"/>
			<point x="540" y="654.671641791"/>
			<point x="540" y="689" type="qcurve"/>
			<point x="540" y="691.2388059701"/>
			<point x="538.4925373134" y="695.5074626866"/>
			<point x="537" y="697" type="qcurve" smooth="yes"/>
			<point x="535.5074626866" y="698.4925373134"/>
			<point x="531.2388059701" y="700"/>
			<point x="529" y="700" type="qcurve"/>
		</contour>
		<contour>
			<point x="165" y="390" type="line"/>
			<point x="165" y="297.4626865672"/>
			<point x="169.2835820896" y="250"/>
			<point x="176" y="250" type="qcurve" smooth="yes"/>
			<point x="500" y="250" type="line"/>
			<point x="500" y="284.328358209"/>
			<point x="500" y="344.671641791"/>
			<point x="500" y="379" type="qcurve"/>
			<point x="500" y="381.2388059701"/>
			<point x="498.4925373134" y="385.5074626866"/>
			<point x="497" y="387" type="qcurve" smooth="yes"/>
			<point x="495.5074626866" y="388.4925373134"/>
			<point x="491.2388059701" y="390"/>
			<point x="489" y="390" type="qcurve"/>
		</contour>
	</outline>
	<guideline x="0" y="0" angle="90" identifier="Q8RBEbRBO3"/>
	<guideline x="50" y="0" angle="90" identifier="5rscYz7qbp"/>
	<guideline x="100" y="0" angle="90" identifier="vPYmjW7Oaf"/>
	<guideline x="150" y="0" angle="90" identifier="YnIMBraiXZ"/>
	<guideline x="200" y="0" angle="90" identifier="RCuVVTSesQ"/>
	<guideline x="250" y="0" angle="90" identifier="FSD32DNEWm"/>
	<guideline x="300" y="0" angle="90" identifier="QJ5CWCH0qq"/>
	<guideline x="350" y="0" angle="90" identifier="fSp07Ib5E1"/>
	<guideline x="400" y="0" angle="90" identifier="KCSFBn74tC"/>
	<guideline x="450" y="0" angle="90" identifier="rSKPRQSeFD"/>
	<guideline x="500" y="0" angle="90" identifier="SC5ehi4npm"/>
	<guideline x="550" y="0" angle="90" identifier="IplE6DvF7e"/>
	<guideline x="600" y="0" angle="90" identifier="0JaJ9leMoP"/>
	<guideline x="0" y="-250" angle="0" identifier="sAK8YD14d2"/>
	<guideline x="0" y="-200" angle="0" identifier="gLjpqfV8gY"/>
	<guideline x="0" y="-150" angle="0" identifier="rE1LpDNh76"/>
	<guideline x="0" y="-100" angle="0" identifier="3jifxsukXL"/>
	<guideline x="0" y="-50" angle="0" identifier="r6t3kT8V88"/>
	<guideline x="0" y="0" angle="0" identifier="Twk1iTkUqU"/>
	<guideline x="0" y="50" angle="0" identifier="wXhDMiGlom"/>
	<guideline x="0" y="100" angle="0" identifier="SZsE34FjZx"/>
	<guideline x="0" y="150" angle="0" identifier="xmzcwusNkt"/>
	<guideline x="0" y="200" angle="0" identifier="L4zxK1gSAX"/>
	<guideline x="0" y="250" angle="0" identifier="B9NwPbnAWW"/>
	<guideline x="0" y="300" angle="0" identifier="uSaZFxHMTj"/>
	<guideline x="0" y="350" angle="0" identifier="gXUFMnjzuf"/>
	<guideline x="0" y="400" angle="0" identifier="h82TozbRVo"/>
	<guideline x="0" y="450" angle="0" identifier="pdPC5bNzPM"/>
	<guideline x="0" y="500" angle="0" identifier="l6qIc3eJeM"/>
	<guideline x="0" y="550" angle="0" identifier="1f3KgphX5y"/>
	<guideline x="0" y="600" angle="0" identifier="ercj4ZlXqt"/>
	<guideline x="0" y="650" angle="0" identifier="PlPQDFBWgu"/>
	<guideline x="0" y="700" angle="0" identifier="ILewROm54r"/>
</glyph>
<glyph name="J" format="2">
	<unicode hex="004A"/>
	<advance width="600"/>
	<outline>
		<contour>
			<point x="121" y="700" type="line"/>
			<point x="121" y="665.671641791"/>
			<point x="121" y="603.328358209"/>
			<point x="121" y="569" type="qcurve"/>
			<point x="121" y="566.7611940299"/>
			<point x="122.5074626866" y="562.4925373134"/>
			<point x="124" y="561" type="qcurve" smooth="yes"/>
			<point x="125.4925373134" y="559.5074626866"/>
			<point x="129.7611940299" y="558"/>
			<point x="132" y="558" type="qcurve"/>
			<point x="470" y="558" type="line"/>
			<point x="470" y="602.0298507463"/>
			<point x="434.552238806" y="700"/>
			<point x="395" y="700" type="qcurve" smooth="yes"/>
		</contour>
		<contour>
			<point x="510" y="245" type="qcurve" smooth="yes"/>
			<point x="510" y="689" type="line" smooth="yes"/>
			<point x="510" y="693.4776119403"/>
			<point x="503.4776119403" y="700"/>
			<point x="499" y="700" type="qcurve" smooth="yes"/>
			<point x="350" y="700" type="line"/>
			<point x="350" y="236" type="line" smooth="yes"/>
			<point x="350" y="188.2388059701"/>
			<point x="350" y="138.8656716418"/>
			<point x="350" y="112" type="qcurve"/>
			<point x="442.5373134328" y="112"/>
			<point x="510" y="172.6119402985"/>
		</contour>
		<contour>
			<point x="246" y="125" type="qcurve" smooth="yes"/>
			<point x="207.9402985075" y="125"/>
			<point x="136.5671641791" y="139.328358209"/>
			<point x="100" y="155" type="qcurve"/>
			<point x="80" y="155" type="line"/>
			<point x="80" y="120.671641791"/>
			<point x="80" y="55.328358209"/>
			<point x="80" y="21" type="qcurve"/>
			<point x="80" y="18.7611940299"/>
			<point x="81.5074626866" y="14.4925373134"/>
			<point x="83" y="13" type="qcurve" smooth="yes"/>
			<point x="94.1940298507" y="1.8059701493"/>
			<point x="184.4626865672" y="-20"/>
			<point x="227" y="-20" type="qcurve" smooth="yes"/>
			<point x="256" y="-20" type="line" smooth="yes"/>
			<point x="384.3582089552" y="-20"/>
			<point x="510" y="131.5671641791"/>
			<point x="510" y="245" type="qcurve" smooth="yes"/>
			<point x="510" y="259.9253731343"/>
			<point x="464.1791044776" y="268.0895522388"/>
			<point x="350" y="236" type="qcurve"/>
			<point x="350" y="173.3134328358"/>
			<point x="299.7313432836" y="125"/>
		</contour>
	</outline>
	<anchor name="top" x="295" y="711"/>
</glyph>
<glyph name="K" format="2">
	<unicode hex="004B"/>
	<advance width="600"/>
	<outline>
		<contour>
			<point x="70" y="700" type="qcurve"/>
			<point x="70" y="673.1343283582"/>
			<point x="70" y="619.8656716418"/>
			<point x="70" y="593" type="qcurve" smooth="yes"/>
			<point x="70" y="11" type="line" smooth="yes"/>
			<point x="70" y="6.5223880597"/>
			<point x="76.5223880597" y="0"/>
			<point x="81" y="0" type="qcurve" smooth="yes"/>
			<point x="118.3134328358" y="0"/>
			<point x="192.6865671642" y="0"/>
			<point x="230" y="0" type="qcurve"/>
			<point x="230" y="689" type="line" smooth="yes"/>
			<point x="230" y="691.2388059701"/>
			<point x="228.4925373134" y="695.5074626866"/>
			<point x="227" y="697" type="qcurve" smooth="yes"/>
			<point x="225.5074626866" y="698.4925373134"/>
			<point x="221.2388059701" y="700"/>
			<point x="219" y="700" type="qcurve" smooth="yes"/>
			<point x="181.6865671642" y="700"/>
			<point x="107.3134328358" y="700"/>
		</contour>
		<contour>
			<point x="560" y="700" type="qcurve"/>
			<point x="390" y="700" type="line"/>
			<point x="327.3134328358" y="595.5223880597"/>
			<point x="200.6865671642" y="385.4776119403"/>
			<point x="138" y="281" type="qcurve"/>
			<point x="131.2835820896" y="271.2985074627"/>
			<point x="147.2388059701" y="231.0895522388"/>
			<point x="195" y="149" type="qcurve"/>
			<point x="303.9552238806" y="304.223880597"/>
			<point x="468.5671641791" y="539.2089552239"/>
			<point x="532" y="631" type="qcurve" smooth="yes"/>
			<point x="558.8656716418" y="670.552238806"/>
			<point x="569" y="688.2686567164"/>
			<point x="569" y="692" type="qcurve" smooth="yes"/>
			<point x="569" y="694.9850746269"/>
			<point x="563.7313432836" y="700"/>
		</contour>
		<contour>
			<point x="335" y="421" type="line"/>
			<point x="266.3432835821" y="325.4776119403"/>
			<point x="241.0298507463" y="276.9552238806"/>
			<point x="247" y="268" type="qcurve" smooth="yes"/>
			<point x="374" y="65" type="line" smooth="yes"/>
			<point x="400.8656716418" y="22.4626865672"/>
			<point x="458.0298507463" y="-10"/>
			<point x="514" y="-10" type="qcurve" smooth="yes"/>
			<point x="559" y="-10" type="line" smooth="yes"/>
			<point x="564.223880597" y="-10"/>
			<point x="570" y="-4.223880597"/>
			<point x="570" y="1" type="qcurve" smooth="yes"/>
			<point x="570" y="35.328358209"/>
			<point x="570" y="105.671641791"/>
			<point x="570" y="140" type="qcurve"/>
			<point x="565" y="140" type="line"/>
			<point x="557.2502870264" y="140"/>
			<point x="548.4626865672" y="140"/>
			<point x="541" y="140" type="qcurve"/>
			<point x="518.6119402985" y="140"/>
			<point x="501.1940298507" y="150.3432835821"/>
			<point x="490" y="169" type="qcurve" smooth="yes"/>
		</contour>
	</outline>
	<anchor name="bottom" x="320" y="-1"/>
</glyph>
<glyph name="Z" format="2">
	<unicode hex="005A"/>
	<advance width="600"/>
	<outline>
		<contour>
			<point x="100" y="700" type="line"/>
			<point x="100" y="665.671641791"/>
			<point x="100" y="603.328358209"/>
			<point x="100" y="569" type="qcurve" smooth="yes"/>
			<point x="100" y="566.7611940299"/>
			<point x="101.5074626866" y="562.4925373134"/>
			<point x="103" y="561" type="qcurve" smooth="yes"/>
			<point x="104.4925373134" y="559.5074626866"/>
			<point x="108.7611940299" y="558"/>
			<point x="111" y="558" type="qcurve" smooth="yes"/>
			<point x="365" y="558" type="line" smooth="yes"/>
			<point x="403.0597014925" y="558"/>
			<point x="497.9402985075" y="563.5373134328"/>
			<point x="536" y="571" type="qcurve" smooth="yes"/>
			<point x="539.7313432836" y="571.7462686567"/>
			<point x="547.0149253731" y="573.2537313433"/>
			<point x="550" y="574" type="qcurve"/>
			<point x="550" y="689" type="line" smooth="yes"/>
			<point x="550" y="693.4776119403"/>
			<point x="543.4776119403" y="700"/>
			<point x="539" y="700" type="qcurve"/>
		</contour>
		<contour>
			<point x="449.2537313433" y="607.5820895522"/>
			<point x="396.7164179104" y="615.7014925373"/>
			<point x="390" y="606" type="qcurve" smooth="yes"/>
			<point x="305.671641791" y="487.3432835821"/>
			<point x="134.328358209" y="244.6567164179"/>
			<point x="50" y="126" type="qcurve"/>
			<point x="153.7313432836" y="92.4179104478"/>
			<point x="203.0298507463" y="88.7910447761"/>
			<point x="209" y="97" type="qcurve" smooth="yes"/>
			<point x="364.223880597" y="311.1791044776"/>
			<point x="550" y="572.5074626866"/>
			<point x="550" y="574" type="qcurve"/>
		</contour>
		<contour>
			<point x="555" y="0" type="line"/>
			<point x="555" y="34.328358209"/>
			<point x="555" y="96.671641791"/>
			<point x="555" y="131" type="qcurve"/>
			<point x="555" y="133.2388059701"/>
			<point x="553.4925373134" y="137.5074626866"/>
			<point x="552" y="139" type="qcurve" smooth="yes"/>
			<point x="550.5074626866" y="140.4925373134"/>
			<point x="546.2388059701" y="142"/>
			<point x="544" y="142" type="qcurve"/>
			<point x="239" y="142" type="line"/>
			<point x="197.2089552239" y="142"/>
			<point x="91.0447761194" y="137.1940298507"/>
			<point x="50" y="126" type="qcurve"/>
			<point x="50" y="11" type="line" smooth="yes"/>
			<point x="50" y="6.5223880597"/>
			<point x="56.5223880597" y="0"/>
			<point x="61" y="0" type="qcurve" smooth="yes"/>
		</contour>
		<contour>
			<point x="200" y="500" type="qcurve"/>
			<point x="200" y="547.0149253731"/>
			<point x="200" y="641.2388059701"/>
			<point x="200" y="689" type="qcurve"/>
			<point x="200" y="694.9701492537"/>
			<point x="194.9701492537" y="700"/>
			<point x="189" y="700" type="qcurve" smooth="yes"/>
			<point x="50" y="700" type="line"/>
			<point x="50" y="652.2388059701"/>
			<point x="50" y="558.0149253731"/>
			<point x="50" y="511" type="qcurve" smooth="yes"/>
			<point x="50" y="506.5223880597"/>
			<point x="56.5223880597" y="500"/>
			<point x="61" y="500" type="qcurve" smooth="yes"/>
			<point x="95.328358209" y="500"/>
			<point x="165.671641791" y="500"/>
		</contour>
	</outline>
	<anchor name="top" x="300" y="711"/>
	<guideline x="0" y="0" angle="90" identifier="fRy569v3b1"/>
	<guideline x="50" y="0" angle="90" identifier="D1xLYSQGNl"/>
	<guideline x="100" y="0" angle="90" identifier="fSo4igPnaU"/>
	<guideline x="150" y="0" angle="90" identifier="5aly7esoIz"/>
	<guideline x="200" y="0" angle="90" identifier="ZFkF5iLBV5"/>
	<guideline x="250" y="0" angle="90" identifier="2s926KRxsS"/>
	<guideline x="300" y="0" angle="90" identifier="x44P7OCgGE"/>
	<guideline x="350" y="0" angle="90" identifier="Ipz2cglK88"/>
	<guideline x="400" y="0" angle="90" identifier="m2igU4mgo3"/>
	<guideline x="450" y="0" angle="90" identifier="mxRHUWzfT0"/>
	<guideline x="500" y="0" angle="90" identifier="k6PqSTsZOp"/>
	<guideline x="550" y="0" angle="90" identifier="jX9xNrgc9U"/>
	<guideline x="600" y="0" angle="90" identifier="wOBDFDGaV1"/>
	<guideline x="0" y="-250" angle="0" identifier="afyhtv8bpN"/>
	<guideline x="0" y="-200" angle="0" identifier="34F4Xfe8NE"/>
	<guideline x="0" y="-150" angle="0" identifier="xz8h37Z5U8"/>
	<guideline x="0" y="-100" angle="0" identifier="5AQTt7i7nA"/>
	<guideline x="0" y="-50" angle="0" identifier="Vs8xNqoKP8"/>
	<guideline x="0" y="0" angle="0" identifier="nhUKKygRBi"/>
	<guideline x="0" y="50" angle="0" identifier="MKgYjRbWKH"/>
	<guideline x="0" y="100" angle="0" identifier="icGoQUhAnD"/>
	<guideline x="0" y="150" angle="0" identifier="3PFxEeSuFY"/>
	<guideline x="0" y="200" angle="0" identifier="HstrMHUcr2"/>
	<guideline x="0" y="250" angle="0" identifier="UrKZyzjlbO"/>
	<guideline x="0" y="300" angle="0" identifier="6uHYfzPCQt"/>
	<guideline x="0" y="350" angle="0" identifier="wCmh82P9rR"/>
	<guideline x="0" y="400" angle="0" identifier="wz1qJ0zFba"/>
	<guideline x="0" y="450" angle="0" identifier="LS7T9BpC2M"/>
	<guideline x="0" y="500" angle="0" identifier="U4j1vQOxMp"/>
	<guideline x="0" y="550" angle="0" identifier="2mit4VFCr7"/>
	<guideline x="0" y="600" angle="0" identifier="etRaHz4HbH"/>
	<guideline x="0" y="650" angle="0" identifier="XPgP0ueNYS"/>
	<guideline x="0" y="700" angle="0" identifier="EV1RNqUYnc"/>
</glyph>
<glyph name="b" format="2">
	<unicode hex="0062"/>
	<advance width="600"/>
	<outline>
		<contour>
			<point x="70" y="0" type="line"/>
			<point x="88.6567164179" y="0"/>
			<point x="126.3432835821" y="0"/>
			<point x="145" y="0" type="qcurve" smooth="yes"/>
			<point x="156.1940298507" y="0"/>
			<point x="225" y="95.328358209"/>
			<point x="225" y="111" type="qcurve"/>
			<point x="225" y="739" type="line"/>
			<point x="225" y="743.4776119403"/>
			<point x="218.4776119403" y="750"/>
			<point x="214" y="750" type="qcurve" smooth="yes"/>
			<point x="178.1791044776" y="750"/>
			<point x="105.8208955224" y="750"/>
			<point x="70" y="750" type="qcurve"/>
			<point x="70" y="713.4328358209"/>
			<point x="70" y="639.5671641791"/>
			<point x="70" y="603" type="qcurve"/>
		</contour>
		<contour>
			<point x="545" y="448.328358209"/>
			<point x="459.4029850746" y="552"/>
			<point x="390" y="552" type="qcurve" smooth="yes"/>
			<point x="347.4626865672" y="552"/>
			<point x="262.0597014925" y="517.0597014925"/>
			<point x="224" y="479" type="qcurve" smooth="yes"/>
			<point x="181.4626865672" y="436.4626865672"/>
			<point x="162.0746268657" y="364.8805970149"/>
			<point x="177" y="341" type="qcurve"/>
			<point x="225.6787374602" y="375.328358209"/>
			<point x="298.9402985075" y="402"/>
			<point x="337" y="402" type="qcurve" smooth="yes"/>
			<point x="362.3731343284" y="402"/>
			<point x="390" y="373.8358208955"/>
			<point x="390" y="341" type="qcurve"/>
			<point x="445.223880597" y="341"/>
			<point x="545" y="355.9380370873"/>
			<point x="545" y="364" type="qcurve" smooth="yes"/>
		</contour>
		<contour>
			<point x="353" y="-10" type="qcurve" smooth="yes"/>
			<point x="444.7910447761" y="-10"/>
			<point x="545" y="115.0597014925"/>
			<point x="545" y="227" type="qcurve" smooth="yes"/>
			<point x="545" y="364" type="line" smooth="yes"/>
			<point x="545" y="414"/>
			<point x="464.7014925373" y="481"/>
			<point x="405" y="481" type="qcurve" smooth="yes"/>
			<point x="380.3731343284" y="481"/>
			<point x="353" y="460.6567164179"/>
			<point x="353" y="442" type="qcurve"/>
			<point x="371.6567164179" y="419.6119402985"/>
			<point x="390" y="381.2985074627"/>
			<point x="390" y="341" type="qcurve" smooth="yes"/>
			<point x="390" y="209" type="line" smooth="yes"/>
			<point x="390" y="173.1791044776"/>
			<point x="356.5970149254" y="135"/>
			<point x="326" y="135" type="qcurve" smooth="yes"/>
			<point x="296.1492537313" y="135"/>
			<point x="221.5820895522" y="162.9104477612"/>
			<point x="188" y="195" type="qcurve"/>
			<point x="185.7611940299" y="187.5373134328"/>
			<point x="173" y="145.1940298507"/>
			<point x="173" y="134" type="qcurve" smooth="yes"/>
			<point x="173" y="76.5373134328"/>
			<point x="284.3432835821" y="-10"/>
		</contour>
	</outline>
</glyph>
<glyph name="h" format="2">
	<unicode hex="0068"/>
	<advance width="600"/>
	<outline>
		<contour>
			<point x="230" y="0" type="qcurve"/>
			<point x="230" y="739" type="line" smooth="yes"/>
			<point x="230" y="741.2388059701"/>
			<point x="228.4925373134" y="745.5074626866"/>
			<point x="227" y="747" type="qcurve" smooth="yes"/>
			<point x="225.5074626866" y="748.4925373134"/>
			<point x="221.2388059701" y="750"/>
			<point x="219" y="750" type="qcurve" smooth="yes"/>
			<point x="185.4179104478" y="750"/>
			<point x="111.0447761194" y="750"/>
			<point x="70" y="750" type="qcurve"/>
			<point x="70" y="729.1044776119"/>
			<point x="70" y="678.8656716418"/>
			<point x="70" y="652" type="qcurve" smooth="yes"/>
			<point x="70" y="11" type="line" smooth="yes"/>
			<point x="70" y="6.5223880597"/>
			<point x="76.5223880597" y="0"/>
			<point x="81" y="0" type="qcurve" smooth="yes"/>
			<point x="118.3134328358" y="0"/>
			<point x="192.6865671642" y="0"/>
		</contour>
		<contour>
			<point x="530" y="462.9402985075"/>
			<point x="456.9402985075" y="552"/>
			<point x="395" y="552" type="qcurve" smooth="yes"/>
			<point x="357.6865671642" y="552"/>
			<point x="272.5223880597" y="509.2089552239"/>
			<point x="227" y="451" type="qcurve" smooth="yes"/>
			<point x="206.8507462687" y="426.3731343284"/>
			<point x="169.0895522388" y="345.2388059701"/>
			<point x="187" y="293" type="qcurve"/>
			<point x="237.7462686567" y="349.7164179104"/>
			<point x="305.9104477612" y="392"/>
			<point x="338" y="392" type="qcurve" smooth="yes"/>
			<point x="354.4179104478" y="392"/>
			<point x="370" y="375.1641791045"/>
			<point x="370" y="358" type="qcurve"/>
			<point x="472.2388059701" y="358"/>
			<point x="530" y="385.328358209"/>
			<point x="530" y="401" type="qcurve" smooth="yes"/>
		</contour>
		<contour>
			<point x="530" y="0" type="qcurve"/>
			<point x="530" y="20.8955223881"/>
			<point x="530" y="71.1343283582"/>
			<point x="530" y="98" type="qcurve" smooth="yes"/>
			<point x="530" y="401" type="line" smooth="yes"/>
			<point x="530" y="437.5671641791"/>
			<point x="415.5223880597" y="451.5820895522"/>
			<point x="370" y="418" type="qcurve"/>
			<point x="370" y="406.0597014925"/>
			<point x="370" y="377.4029850746"/>
			<point x="370" y="358" type="qcurve" smooth="yes"/>
			<point x="370" y="11" type="line" smooth="yes"/>
			<point x="370" y="6.5223880597"/>
			<point x="376.5223880597" y="0"/>
			<point x="381" y="0" type="qcurve" smooth="yes"/>
			<point x="418.3134328358" y="0"/>
			<point x="492.6865671642" y="0"/>
		</contour>
	</outline>
	<anchor name="top" x="140" y="730"/>
</glyph>
<glyph name="l" format="2">
	<unicode hex="006C"/>
	<advance width="600"/>
	<outline>
		<contour>
			<point x="80" y="750" type="qcurve"/>
			<point x="80" y="715.671641791"/>
			<point x="80" y="653.328358209"/>
			<point x="80" y="619" type="qcurve" smooth="yes"/>
			<point x="80" y="614.5223880597"/>
			<point x="86.5223880597" y="608"/>
			<point x="91" y="608" type="qcurve" smooth="yes"/>
			<point x="134.2835820896" y="608"/>
			<point x="211.7164179104" y="608"/>
			<point x="255" y="608" type="qcurve"/>
			<point x="255" y="696.8059701493"/>
			<point x="248.2089552239" y="750"/>
			<point x="240" y="750" type="qcurve" smooth="yes"/>
			<point x="197.4626865672" y="750"/>
			<point x="122.5373134328" y="750"/>
		</contour>
		<contour>
			<point x="387" y="747" type="qcurve" smooth="yes"/>
			<point x="385.5074626866" y="748.4925373134"/>
			<point x="381.2388059701" y="750"/>
			<point x="379" y="750" type="qcurve" smooth="yes"/>
			<point x="240" y="750" type="line"/>
			<point x="240" y="96" type="line" smooth="yes"/>
			<point x="240" y="78.0895522388"/>
			<point x="329.552238806" y="67"/>
			<point x="390" y="67" type="qcurve"/>
			<point x="390" y="739" type="line"/>
			<point x="390" y="741.2388059701"/>
			<point x="388.4925373134" y="745.5074626866"/>
		</contour>
		<contour>
			<point x="60" y="142" type="line"/>
			<point x="60" y="107.671641791"/>
			<point x="60" y="45.328358209"/>
			<point x="60" y="11" type="qcurve" smooth="yes"/>
			<point x="60" y="8.7611940299"/>
			<point x="61.5074626866" y="4.4925373134"/>
			<point x="63" y="3" type="qcurve" smooth="yes"/>
			<point x="64.4925373134" y="1.5074626866"/>
			<point x="68.7611940299" y="0"/>
			<point x="71" y="0" type="qcurve" smooth="yes"/>
			<point x="540" y="0" type="line"/>
			<point x="540" y="34.328358209"/>
			<point x="540" y="96.671641791"/>
			<point x="540" y="131" type="qcurve" smooth="yes"/>
			<point x="540" y="135.4776119403"/>
			<point x="533.4776119403" y="142"/>
			<point x="529" y="142" type="qcurve" smooth="yes"/>
		</contour>
	</outline>
	<anchor name="top" x="300" y="730"/>
	<anchor name="bottom" x="300" y="-1"/>
	<anchor name="dot" x="500" y="400"/>
	<anchor name="caronslovak" x="525" y="671"/>
</glyph>
<glyph name="s" format="2">
	<unicode hex="0073"/>
	<advance width="600"/>
	<outline>
		<contour>
			<point x="340" y="549" type="qcurve" smooth="yes"/>
			<point x="321" y="549" type="line" smooth="yes"/>
			<point x="212.7910447761" y="549"/>
			<point x="82" y="453.8208955224"/>
			<point x="82" y="368" type="qcurve"/>
			<point x="82" y="341.1343283582"/>
			<point x="168.8208955224" y="301"/>
			<point x="233" y="301" type="qcurve"/>
			<point x="233" y="310.7014925373"/>
			<point x="233" y="358.3134328358"/>
			<point x="233" y="371" type="qcurve" smooth="yes"/>
			<point x="233" y="387.4179104478"/>
			<point x="273.5074626866" y="404"/>
			<point x="325" y="404" type="qcurve" smooth="yes"/>
			<point x="368.2835820896" y="404"/>
			<point x="436.064058589" y="393.6865671642"/>
			<point x="479" y="381" type="qcurve"/>
			<point x="499" y="381" type="line"/>
			<point x="499" y="413.8358208955"/>
			<point x="499" y="480.1641791045"/>
			<point x="499" y="513" type="qcurve" smooth="yes"/>
			<point x="499" y="516.7313432836"/>
			<point x="497.4925373134" y="521.5074626866"/>
			<point x="496" y="523" type="qcurve" smooth="yes"/>
			<point x="488.0357315324" y="530.9642684676"/>
			<point x="403.4328358209" y="549"/>
		</contour>
		<contour>
			<point x="370" y="322" type="qcurve" smooth="yes"/>
			<point x="283" y="333" type="line" smooth="yes"/>
			<point x="254.6417910448" y="336.7313432836"/>
			<point x="233" y="354.5820895522"/>
			<point x="233" y="371" type="qcurve" smooth="yes"/>
			<point x="233" y="389.6567164179"/>
			<point x="233" y="432.1274273793"/>
			<point x="233" y="456" type="qcurve"/>
			<point x="168.0746268657" y="456"/>
			<point x="82" y="406.0597014925"/>
			<point x="82" y="368" type="qcurve" smooth="yes"/>
			<point x="82" y="306.8059701493"/>
			<point x="157.8955223881" y="230.447761194"/>
			<point x="237" y="220" type="qcurve" smooth="yes"/>
			<point x="325" y="208" type="line" smooth="yes"/>
			<point x="363.796944943" y="202.7095075078"/>
			<point x="388" y="181.6865671642"/>
			<point x="388" y="169" type="qcurve"/>
			<point x="388" y="151.8358208955"/>
			<point x="388" y="107.6197274497"/>
			<point x="388" y="87" type="qcurve"/>
			<point x="455.904378178" y="88.492403916"/>
			<point x="536" y="131.5542512158"/>
			<point x="536" y="166" type="qcurve" smooth="yes"/>
			<point x="536" y="221.841482244"/>
			<point x="458.8059701493" y="310.8059701493"/>
		</contour>
		<contour>
			<point x="295" y="136" type="qcurve" smooth="yes"/>
			<point x="227.0895522388" y="136"/>
			<point x="140.7611940299" y="148.0895522388"/>
			<point x="93" y="166" type="qcurve"/>
			<point x="73" y="166" type="line"/>
			<point x="73" y="136.8955223881"/>
			<point x="73" y="69.0597014925"/>
			<point x="73" y="31" type="qcurve" smooth="yes"/>
			<point x="73" y="28.7611940299"/>
			<point x="73.5074626866" y="25.4925373134"/>
			<point x="75" y="24" type="qcurve" smooth="yes"/>
			<point x="83.2089552239" y="15.7910447761"/>
			<point x="208.0597014925" y="-9"/>
			<point x="270" y="-9" type="qcurve" smooth="yes"/>
			<point x="291" y="-9" type="line" smooth="yes"/>
			<point x="408.9104477612" y="-9"/>
			<point x="536" y="80.9253731343"/>
			<point x="536" y="166" type="qcurve" smooth="yes"/>
			<point x="536" y="215.2537313433"/>
			<point x="447.7014925373" y="253"/>
			<point x="388" y="253" type="qcurve"/>
			<point x="388" y="228.3731343284"/>
			<point x="388" y="185.4179104478"/>
			<point x="388" y="169" type="qcurve" smooth="yes"/>
			<point x="388" y="155.5671641791"/>
			<point x="351.7164179104" y="136"/>
		</contour>
	</outline>
	<anchor name="top" x="300" y="551"/>
	<anchor name="bottom" x="304" y="-1"/>
</glyph>
<glyph name="braceleft" format="2">
	<unicode hex="007B"/>
	<advance width="600"/>
	<outline>
		<contour>
			<point x="401" y="618" type="qcurve" smooth="yes"/>
			<point x="454.9577393929" y="618"/>
			<point x="456.8338084857" y="618"/>
			<point x="500" y="618" type="qcurve"/>
			<point x="520" y="618" type="line"/>
			<point x="520" y="650.8358208955"/>
			<point x="520" y="716.1641791045"/>
			<point x="520" y="749" type="qcurve" smooth="yes"/>
			<point x="520" y="754.223880597"/>
			<point x="514.223880597" y="760"/>
			<point x="509" y="760" type="qcurve" smooth="yes"/>
			<point x="332" y="760" type="line" smooth="yes"/>
			<point x="269.3134328358" y="760"/>
			<point x="219" y="686.1044776119"/>
			<point x="219" y="657" type="qcurve" smooth="yes"/>
			<point x="219" y="653" type="line" smooth="yes"/>
			<point x="219" y="647.0298507463"/>
			<point x="262.2835820896" y="625.8208955224"/>
			<point x="369" y="590" type="qcurve"/>
			<point x="369" y="607.1641791045"/>
			<point x="383.0895522388" y="618"/>
		</contour>
		<contour>
			<point x="420" y="442" type="qcurve" smooth="yes"/>
			<point x="420" y="503.9402985075"/>
			<point x="369" y="562.3880597015"/>
			<point x="369" y="590" type="qcurve" smooth="yes"/>
			<point x="369" y="590.7462686567"/>
			<point x="369" y="652.8208955224"/>
			<point x="369" y="667" type="qcurve"/>
			<point x="260.0447761194" y="667"/>
			<point x="219" y="661.4776119403"/>
			<point x="219" y="657" type="qcurve" smooth="yes"/>
			<point x="219" y="616" type="line" smooth="yes"/>
			<point x="219" y="544.3582089552"/>
			<point x="270" y="488.776119403"/>
			<point x="270" y="444" type="qcurve" smooth="yes"/>
			<point x="270" y="407.4328358209"/>
			<point x="190.3582089552" y="371"/>
			<point x="112" y="371" type="qcurve" smooth="yes"/>
			<point x="80" y="371" type="line"/>
			<point x="80" y="278" type="line" smooth="yes"/>
			<point x="80" y="272.0298507463"/>
			<point x="85.776119403" y="267"/>
			<point x="91" y="267" type="qcurve" smooth="yes"/>
			<point x="112" y="267" type="line" smooth="yes"/>
			<point x="286.6268656716" y="267"/>
			<point x="420" y="371.8507462687"/>
		</contour>
		<contour>
			<point x="420" y="157" type="qcurve" smooth="yes"/>
			<point x="420" y="230.8805970149"/>
			<point x="286.6268656716" y="333"/>
			<point x="112" y="333" type="qcurve"/>
			<point x="103.7910447761" y="333"/>
			<point x="88.2089552239" y="333"/>
			<point x="80" y="333" type="qcurve"/>
			<point x="80" y="240" type="line" smooth="yes"/>
			<point x="80" y="234.776119403"/>
			<point x="85.776119403" y="229"/>
			<point x="91" y="229" type="qcurve" smooth="yes"/>
			<point x="112" y="229" type="line" smooth="yes"/>
			<point x="190.3582089552" y="229"/>
			<point x="270" y="189.328358209"/>
			<point x="270" y="155" type="qcurve" smooth="yes"/>
			<point x="270" y="110.223880597"/>
			<point x="219" y="54.6417910448"/>
			<point x="219" y="-17" type="qcurve" smooth="yes"/>
			<point x="219" y="-58" type="line" smooth="yes"/>
			<point x="219" y="-62.4776119403"/>
			<point x="260.0447761194" y="-68"/>
			<point x="369" y="-68" type="qcurve"/>
			<point x="369" y="-48.5970149254"/>
			<point x="369" y="-10.4029850746"/>
			<point x="369" y="9" type="qcurve" smooth="yes"/>
			<point x="369" y="36.6119402985"/>
			<point x="420" y="95.0597014925"/>
		</contour>
		<contour>
			<point x="401" y="-19" type="qcurve" smooth="yes"/>
			<point x="383.0895522388" y="-19"/>
			<point x="369" y="-8.1641791045"/>
			<point x="369" y="9" type="qcurve"/>
			<point x="263.776119403" y="-26.8208955224"/>
			<point x="219" y="-48.0298507463"/>
			<point x="219" y="-54" type="qcurve" smooth="yes"/>
			<point x="219" y="-58" type="line" smooth="yes"/>
			<point x="219" y="-87.1044776119"/>
			<point x="269.3134328358" y="-161"/>
			<point x="332" y="-161" type="qcurve" smooth="yes"/>
			<point x="509" y="-161" type="line" smooth="yes"/>
			<point x="514.223880597" y="-161"/>
			<point x="520" y="-155.223880597"/>
			<point x="520" y="-150" type="qcurve"/>
			<point x="520" y="-19" type="line"/>
			<point x="500" y="-19" type="line"/>
			<point x="456.7164179104" y="-19"/>
			<point x="454.7313432836" y="-19"/>
		</contour>
	</outline>
	<guideline x="0" y="0" angle="90" identifier="GiO2VPOV2j"/>
	<guideline x="50" y="0" angle="90" identifier="UsTQri1dx9"/>
	<guideline x="100" y="0" angle="90" identifier="whhlVr0Zqp"/>
	<guideline x="150" y="0" angle="90" identifier="gQ2wNjOQcS"/>
	<guideline x="200" y="0" angle="90" identifier="igQpMaVDZv"/>
	<guideline x="250" y="0" angle="90" identifier="SWNC9r8b8j"/>
	<guideline x="300" y="0" angle="90" identifier="80FeIoyljs"/>
	<guideline x="350" y="0" angle="90" identifier="6EMnzgqHho"/>
	<guideline x="400" y="0" angle="90" identifier="FLBbsS4nvi"/>
	<guideline x="450" y="0" angle="90" identifier="ixFZr6zywa"/>
	<guideline x="500" y="0" angle="90" identifier="2R5QhDhzxW"/>
	<guideline x="550" y="0" angle="90" identifier="EItPtx3drk"/>
	<guideline x="600" y="0" angle="90" identifier="j6pI9DQWSt"/>
	<guideline x="0" y="-250" angle="0" identifier="WoDUmfwVd8"/>
	<guideline x="0" y="-200" angle="0" identifier="X3hT443A22"/>
	<guideline x="0" y="-150" angle="0" identifier="bDyPPBcsPc"/>
	<guideline x="0" y="-100" angle="0" identifier="In6lsGEUBd"/>
	<guideline x="0" y="-50" angle="0" identifier="7lWeK6UwOG"/>
	<guideline x="0" y="0" angle="0" identifier="Zk0fZB2Ffb"/>
	<guideline x="0" y="50" angle="0" identifier="46B96e2vco"/>
	<guideline x="0" y="100" angle="0" identifier="Rz642vVNTO"/>
	<guideline x="0" y="150" angle="0" identifier="xR758ijmMc"/>
	<guideline x="0" y="200" angle="0" identifier="OY9Dyfmp9v"/>
	<guideline x="0" y="250" angle="0" identifier="4QKO97MEYs"/>
	<guideline x="0" y="300" angle="0" identifier="xdRDaBpdLf"/>
	<guideline x="0" y="350" angle="0" identifier="ijT5uAv6cP"/>
	<guideline x="0" y="400" angle="0" identifier="WerPSaJYr1"/>
	<guideline x="0" y="450" angle="0" identifier="SSzvalf3MC"/>
	<guideline x="0" y="500" angle="0" identifier="QnyXZqtdL2"/>
	<guideline x="0" y="550" angle="0" identifier="D9T2cMuYfn"/>
	<guideline x="0" y="600" angle="0" identifier="k3HbyZXx1d"/>
	<guideline x="0" y="650" angle="0" identifier="pFIEWipTgd"/>
	<guideline x="0" y="700" angle="0" identifier="m69BE62w61"/>
</glyph>
<glyph name="cent" format="2">
	<unicode hex="00A2"/>
	<advance width="600"/>
	<outline>
		<contour>
			<point x="397" y="383" type="line"/>
			<point x="458" y="764" type="line" smooth="yes"/>
			<point x="458.7462686567" y="770.7164179104"/>
			<point x="452.4776119403" y="777"/>
			<point x="448" y="777" type="qcurve" smooth="yes"/>
			<point x="408.447761194" y="777"/>
			<point x="358.2985074627" y="777"/>
			<point x="318" y="777" type="qcurve"/>
			<point x="318" y="752.3731343284"/>
			<point x="318" y="702.6268656716"/>
			<point x="318" y="678" type="qcurve"/>
			<point x="318" y="415" type="line" smooth="yes"/>
			<point x="318" y="409.0298507463"/>
			<point x="323.0298507463" y="401.4925373134"/>
			<point x="329" y="400" type="qcurve" smooth="yes"/>
		</contour>
		<contour>
			<point x="319" y="314" type="line"/>
			<point x="258" y="-67" type="line" smooth="yes"/>
			<point x="257.2537313433" y="-73.7164179104"/>
			<point x="263.5223880597" y="-80"/>
			<point x="268" y="-80" type="qcurve" smooth="yes"/>
			<point x="307.552238806" y="-80"/>
			<point x="357.7014925373" y="-80"/>
			<point x="398" y="-80" type="qcurve"/>
			<point x="398" y="-55.3731343284"/>
			<point x="398" y="-5.6268656716"/>
			<point x="398" y="19" type="qcurve"/>
			<point x="398" y="282" type="line" smooth="yes"/>
			<point x="398" y="287.9701492537"/>
			<point x="392.9701492537" y="295.5074626866"/>
			<point x="387" y="297" type="qcurve" smooth="yes"/>
		</contour>
		<contour>
			<point x="346" y="632" type="qcurve" smooth="yes"/>
			<point x="218.3880597015" y="632"/>
			<point x="65" y="489.9552238806"/>
			<point x="65" y="381" type="qcurve" smooth="yes"/>
			<point x="65" y="315" type="line" smooth="yes"/>
			<point x="65" y="198.5820895522"/>
			<point x="208.6865671642" y="68"/>
			<point x="346" y="68" type="qcurve" smooth="yes"/>
			<point x="363.1641791045" y="68"/>
			<point x="361.6567164179" y="121.7313432836"/>
			<point x="343" y="218" type="qcurve"/>
			<point x="275.8358208955" y="218"/>
			<point x="220" y="269.2686567164"/>
			<point x="220" y="323" type="qcurve" smooth="yes"/>
			<point x="220" y="379" type="line" smooth="yes"/>
			<point x="220" y="438.7014925373"/>
			<point x="290.7611940299" y="482"/>
			<point x="343" y="482" type="qcurve" smooth="yes"/>
			<point x="384.7910447761" y="482"/>
			<point x="460.447761194" y="464.671641791"/>
			<point x="500" y="449" type="qcurve"/>
			<point x="520" y="449" type="line"/>
			<point x="520" y="482.5820895522"/>
			<point x="520" y="550.4179104478"/>
			<point x="520" y="584" type="qcurve"/>
			<point x="520" y="586.2388059701"/>
			<point x="518.4925373134" y="590.5074626866"/>
			<point x="517" y="592" type="qcurve" smooth="yes"/>
			<point x="505.0597014925" y="603.9402985075"/>
			<point x="417.6417910448" y="632"/>
		</contour>
		<contour>
			<point x="160" y="274" type="qcurve"/>
			<point x="141.3432835821" y="164.2985074627"/>
			<point x="237.0447761194" y="68"/>
			<point x="346" y="68" type="qcurve" smooth="yes"/>
			<point x="415.4029850746" y="68"/>
			<point x="505.8059701493" y="93.8059701493"/>
			<point x="517" y="105" type="qcurve" smooth="yes"/>
			<point x="518.4925373134" y="106.4925373134"/>
			<point x="520" y="110.7611940299"/>
			<point x="520" y="113" type="qcurve"/>
			<point x="520" y="146.5820895522"/>
			<point x="520" y="214.4179104478"/>
			<point x="520" y="248" type="qcurve"/>
			<point x="500" y="248" type="line"/>
			<point x="460.447761194" y="233.8208955224"/>
			<point x="384.7910447761" y="218"/>
			<point x="343" y="218" type="qcurve" smooth="yes"/>
			<point x="285.5373134328" y="218"/>
			<point x="195.8208955224" y="247.1343283582"/>
		</contour>
	</outline>
	<guideline x="0" y="0" angle="90" identifier="ShEauoT5tU"/>
	<guideline x="50" y="0" angle="90" identifier="nu14bFFYbK"/>
	<guideline x="100" y="0" angle="90" identifier="scr0xTPk0C"/>
	<guideline x="150" y="0" angle="90" identifier="o55CVJjwfv"/>
	<guideline x="200" y="0" angle="90" identifier="BgLJe5fR5d"/>
	<guideline x="250" y="0" angle="90" identifier="pvl0DjDDiP"/>
	<guideline x="300" y="0" angle="90" identifier="yU8PkxmJYc"/>
	<guideline x="350" y="0" angle="90" identifier="t1yOQOROUg"/>
	<guideline x="400" y="0" angle="90" identifier="nCIGsN41jh"/>
	<guideline x="450" y="0" angle="90" identifier="0zhNLKlcni"/>
	<guideline x="500" y="0" angle="90" identifier="mjGeKVmxSq"/>
	<guideline x="550" y="0" angle="90" identifier="aYE35Wm6Df"/>
	<guideline x="600" y="0" angle="90" identifier="Quf3MvWye7"/>
	<guideline x="0" y="-250" angle="0" identifier="68Stl9Is5W"/>
	<guideline x="0" y="-200" angle="0" identifier="bvLcpISmht"/>
	<guideline x="0" y="-150" angle="0" identifier="WV9twGkPoN"/>
	<guideline x="0" y="-100" angle="0" identifier="8hJmodiioJ"/>
	<guideline x="0" y="-50" angle="0" identifier="qs6WwwlMeP"/>
	<guideline x="0" y="0" angle="0" identifier="8Qo9gb774R"/>
	<guideline x="0" y="50" angle="0" identifier="rJbSbXF9sH"/>
	<guideline x="0" y="100" angle="0" identifier="HQORwYm7fY"/>
	<guideline x="0" y="150" angle="0" identifier="oo4CBNyVZm"/>
	<guideline x="0" y="200" angle="0" identifier="Rgj2KHIG0L"/>
	<guideline x="0" y="250" angle="0" identifier="GLMXbkfMB0"/>
	<guideline x="0" y="300" angle="0" identifier="cWP8rIGBos"/>
	<guideline x="0" y="350" angle="0" identifier="s3wkuWuzhy"/>
	<guideline x="0" y="400" angle="0" identifier="Jn9Bpv7fuX"/>
	<guideline x="0" y="450" angle="0" identifier="ETA8WuXqAe"/>
	<guideline x="0" y="500" angle="0" identifier="d0LvcbiFi2"/>
	<guideline x="0" y="550" angle="0" identifier="5uRe4cRHoc"/>
	<guideline x="0" y="600" angle="0" identifier="38XPD9o7hh"/>
	<guideline x="0" y="650" angle="0" identifier="kNIBFQRPqm"/>
	<guideline x="0" y="700" angle="0" identifier="ti7swvkO5g"/>
</glyph>
<glyph name="ordfeminine" format="2">
	<unicode hex="00AA"/>
	<advance width="600"/>
	<outline>
		<contour>
			<point x="264" y="760" type="qcurve" smooth="yes"/>
			<point x="223.7014925373" y="760"/>
			<point x="127.9552238806" y="744.9552238806"/>
			<point x="119" y="736" type="qcurve" smooth="yes"/>
			<point x="118.2537313433" y="735.2537313433"/>
			<point x="117" y="731.4925373134"/>
			<point x="117" y="730" type="qcurve" smooth="yes"/>
			<point x="117" y="703.8805970149"/>
			<point x="117" y="651.3731343284"/>
			<point x="117" y="626" type="qcurve"/>
			<point x="134" y="626" type="line"/>
			<point x="169.0746268657" y="634.2089552239"/>
			<point x="234.447761194" y="642"/>
			<point x="274" y="642" type="qcurve" smooth="yes"/>
			<point x="315.0447761194" y="642"/>
			<point x="351" y="616.328358209"/>
			<point x="351" y="582" type="qcurve"/>
			<point x="436.0746268657" y="559.6119402985"/>
			<point x="481" y="557.3134328358"/>
			<point x="481" y="570" type="qcurve" smooth="yes"/>
			<point x="481" y="671.4925373134"/>
			<point x="379.671641791" y="760"/>
		</contour>
		<contour>
			<point x="351" y="658" type="qcurve"/>
			<point x="351" y="643.0746268657"/>
			<point x="351" y="612.1791044776"/>
			<point x="351" y="598" type="qcurve" smooth="yes"/>
			<point x="351" y="548"/>
			<point x="351" y="462.6865671642"/>
			<point x="351" y="400" type="qcurve" smooth="yes"/>
			<point x="351" y="370.8955223881"/>
			<point x="432.4925373134" y="326"/>
			<point x="481" y="326" type="qcurve"/>
			<point x="481" y="343.9104477612"/>
			<point x="481" y="377.3582089552"/>
			<point x="481" y="399" type="qcurve" smooth="yes"/>
			<point x="481" y="446.0149253731"/>
			<point x="481" y="509.552238806"/>
			<point x="481" y="570" type="qcurve" smooth="yes"/>
			<point x="481" y="611.7910447761"/>
			<point x="430.8507462687" y="658"/>
		</contour>
		<contour>
			<point x="528" y="409" type="line"/>
			<point x="512" y="409" type="line"/>
			<point x="509.0149253731" y="409"/>
			<point x="505.7313432836" y="409"/>
			<point x="502" y="409" type="qcurve" smooth="yes"/>
			<point x="493.0447761194" y="409"/>
			<point x="481.7462686567" y="421.8208955224"/>
			<point x="481" y="436" type="qcurve"/>
			<point x="390.7014925373" y="433.0149253731"/>
			<point x="351" y="411.1940298507"/>
			<point x="351" y="400" type="qcurve" smooth="yes"/>
			<point x="351" y="357.4626865672"/>
			<point x="423.3134328358" y="290"/>
			<point x="486" y="290" type="qcurve" smooth="yes"/>
			<point x="519" y="290" type="line" smooth="yes"/>
			<point x="523.4776119403" y="290"/>
			<point x="528" y="294.5223880597"/>
			<point x="528" y="299" type="qcurve" smooth="yes"/>
		</contour>
		<contour>
			<point x="218" y="428" type="qcurve" smooth="yes"/>
			<point x="218" y="448" type="line" smooth="yes"/>
			<point x="218" y="467.4029850746"/>
			<point x="218" y="498.328358209"/>
			<point x="218" y="514" type="qcurve"/>
			<point x="165.0149253731" y="514"/>
			<point x="92" y="474.8358208955"/>
			<point x="92" y="442" type="qcurve" smooth="yes"/>
			<point x="92" y="411" type="line" smooth="yes"/>
			<point x="92" y="358.7611940299"/>
			<point x="162.2985074627" y="290"/>
			<point x="222" y="290" type="qcurve" smooth="yes"/>
			<point x="264.5373134328" y="290"/>
			<point x="346.1641791045" y="332.4776119403"/>
			<point x="379" y="378" type="qcurve" smooth="yes"/>
			<point x="383.4776119403" y="383.223880597"/>
			<point x="385.7164179104" y="418.4179104478"/>
			<point x="379" y="452" type="qcurve"/>
			<point x="349.8955223881" y="425.1343283582"/>
			<point x="292.5373134328" y="403"/>
			<point x="250" y="403" type="qcurve" smooth="yes"/>
			<point x="248" y="403" type="line" smooth="yes"/>
			<point x="230.8358208955" y="403"/>
			<point x="218" y="419.0447761194"/>
		</contour>
		<contour>
			<point x="372" y="538" type="qcurve" smooth="yes"/>
			<point x="361.552238806" y="549.1940298507"/>
			<point x="277.4626865672" y="564"/>
			<point x="220" y="564" type="qcurve" smooth="yes"/>
			<point x="167.7611940299" y="564"/>
			<point x="92" y="492"/>
			<point x="92" y="442" type="qcurve"/>
			<point x="92" y="437.5223880597"/>
			<point x="131.4328358209" y="430.8358208955"/>
			<point x="218" y="448" type="qcurve"/>
			<point x="218" y="459.1940298507"/>
			<point x="233.8208955224" y="476"/>
			<point x="248" y="476" type="qcurve" smooth="yes"/>
			<point x="278.5970149254" y="476"/>
			<point x="372.3582089552" y="476"/>
			<point x="394" y="476" type="qcurve"/>
			<point x="394" y="493.9104477612"/>
			<point x="383.1940298507" y="526.8059701493"/>
		</contour>
	</outline>
</glyph>
<glyph name="registered" format="2">
	<unicode hex="00AE"/>
	<advance width="600"/>
	<outline>
		<contour>
			<point x="270" y="327" type="qcurve"/>
			<point x="270" y="345.6567164179"/>
			<point x="270" y="382.3432835821"/>
			<point x="270" y="401" type="qcurve"/>
			<point x="270" y="602" type="line"/>
			<point x="270" y="602.7462686567"/>
			<point x="249.1940298507" y="608"/>
			<point x="188" y="608" type="qcurve"/>
			<point x="188" y="338" type="line" smooth="yes"/>
			<point x="188" y="332.776119403"/>
			<point x="193.776119403" y="327"/>
			<point x="199" y="327" type="qcurve"/>
			<point x="216.8744830066" y="327"/>
			<point x="252.1175373134" y="327"/>
		</contour>
		<contour>
			<point x="168" y="635" type="qcurve"/>
			<point x="168" y="619.5509295627"/>
			<point x="168" y="591.4490704373"/>
			<point x="168" y="576" type="qcurve"/>
			<point x="168" y="570.776119403"/>
			<point x="173.776119403" y="565"/>
			<point x="179" y="565" type="qcurve"/>
			<point x="183.4776119403" y="565"/>
			<point x="196.5223880597" y="565"/>
			<point x="201" y="565" type="qcurve" smooth="yes"/>
			<point x="227.8656716418" y="565"/>
			<point x="294.1343283582" y="565"/>
			<point x="321" y="565" type="qcurve" smooth="yes"/>
			<point x="347.1194029851" y="565"/>
			<point x="378.8208955224" y="565"/>
			<point x="393" y="565" type="qcurve"/>
			<point x="393" y="597.2651448639"/>
			<point x="356.0895522388" y="635"/>
			<point x="324" y="635" type="qcurve" smooth="yes"/>
			<point x="289.9596753077" y="635"/>
			<point x="201.2622601279" y="635"/>
		</contour>
		<contour>
			<point x="428" y="510" type="qcurve" smooth="yes"/>
			<point x="428" y="545" type="line" smooth="yes"/>
			<point x="428" y="586.0447761194"/>
			<point x="375.7412935323" y="635"/>
			<point x="324" y="635" type="qcurve"/>
			<point x="320.2686567164" y="635"/>
			<point x="314.2835820896" y="614.2537313433"/>
			<point x="321" y="565" type="qcurve"/>
			<point x="334.4328358209" y="565"/>
			<point x="348" y="553.6865671642"/>
			<point x="348" y="541" type="qcurve" smooth="yes"/>
			<point x="348" y="517" type="line" smooth="yes"/>
			<point x="348" y="506.2537313433"/>
			<point x="332.6245694604" y="493"/>
			<point x="321" y="493" type="qcurve" smooth="yes"/>
			<point x="306.2544506384" y="493"/>
			<point x="250.0591620212" y="493"/>
			<point x="239" y="493" type="qcurve"/>
			<point x="239" y="477.8180970149"/>
			<point x="239" y="448.9104477612"/>
			<point x="239" y="431" type="qcurve" smooth="yes"/>
			<point x="239" y="428.7611940299"/>
			<point x="242.7611940299" y="425"/>
			<point x="245" y="425" type="qcurve" smooth="yes"/>
			<point x="344" y="425" type="line" smooth="yes"/>
			<point x="383.552238806" y="425"/>
			<point x="428" y="473.4328358209"/>
		</contour>
		<contour>
			<point x="366" y="477" type="line"/>
			<point x="332.4179104478" y="477"/>
			<point x="300.230695376" y="444.1607342039"/>
			<point x="304" y="434" type="qcurve" smooth="yes"/>
			<point x="327" y="372" type="line" smooth="yes"/>
			<point x="336.7014925373" y="345.1343283582"/>
			<point x="374.1641791045" y="324"/>
			<point x="407" y="324" type="qcurve" smooth="yes"/>
			<point x="418" y="324" type="line" smooth="yes"/>
			<point x="423.9701492537" y="324"/>
			<point x="429" y="329.776119403"/>
			<point x="429" y="335" type="qcurve" smooth="yes"/>
			<point x="429" y="346.9402985075"/>
			<point x="429" y="384.5820895522"/>
			<point x="429" y="401" type="qcurve"/>
			<point x="426" y="401" type="line"/>
			<point x="422.2686567164" y="401"/>
			<point x="414.4776119403" y="401"/>
			<point x="410" y="401" type="qcurve"/>
			<point x="401.0447761194" y="401"/>
			<point x="393.9850746269" y="405.5373134328"/>
			<point x="391" y="413" type="qcurve" smooth="yes"/>
		</contour>
		<contour>
			<point x="300" y="760" type="qcurve" smooth="yes"/>
			<point x="181.3432835821" y="760"/>
			<point x="43" y="649.0421244034"/>
			<point x="43" y="543" type="qcurve" smooth="yes"/>
			<point x="43" y="417" type="line" smooth="yes"/>
			<point x="43" y="311.0298507463"/>
			<point x="181.3432835821" y="200"/>
			<point x="300" y="200" type="qcurve"/>
			<point x="300" y="200"/>
			<point x="311.1940298507" y="223.9402985075"/>
			<point x="300" y="262" type="qcurve"/>
			<point x="204.4776119403" y="262"/>
			<point x="109" y="343.8358208955"/>
			<point x="109" y="411" type="qcurve" smooth="yes"/>
			<point x="109" y="551" type="line" smooth="yes"/>
			<point x="109" y="617.5119285463"/>
			<point x="204.4776119403" y="698"/>
			<point x="300" y="698" type="qcurve" smooth="yes"/>
			<point x="335.1054008309" y="698"/>
			<point x="386.3952915833" y="698"/>
			<point x="417" y="698" type="qcurve"/>
			<point x="417" y="722.6268656716"/>
			<point x="364.8099707647" y="760"/>
		</contour>
		<contour>
			<point x="300" y="200" type="qcurve" smooth="yes"/>
			<point x="423.1343283582" y="200"/>
			<point x="557" y="311.0298507463"/>
			<point x="557" y="417" type="qcurve" smooth="yes"/>
			<point x="557" y="543" type="line" smooth="yes"/>
			<point x="557" y="648.9701492537"/>
			<point x="423.1343283582" y="760"/>
			<point x="300" y="760" type="qcurve"/>
			<point x="300" y="760"/>
			<point x="288.8059701493" y="736.0597014925"/>
			<point x="300" y="698" type="qcurve"/>
			<point x="400" y="698"/>
			<point x="491" y="616.1641791045"/>
			<point x="491" y="549" type="qcurve" smooth="yes"/>
			<point x="491" y="409" type="line" smooth="yes"/>
			<point x="491" y="342.5820895522"/>
			<point x="400" y="262"/>
			<point x="300" y="262" type="qcurve" smooth="yes"/>
			<point x="264.8945991691" y="262"/>
			<point x="213.6047084167" y="262"/>
			<point x="183" y="262" type="qcurve"/>
			<point x="183" y="237.3731343284"/>
			<point x="235.1900292353" y="200"/>
		</contour>
	</outline>
	<guideline x="0" y="0" angle="90" identifier="92m9P6JCcz"/>
	<guideline x="50" y="0" angle="90" identifier="eOehL6MRu5"/>
	<guideline x="100" y="0" angle="90" identifier="cj3HA6ypbb"/>
	<guideline x="150" y="0" angle="90" identifier="tczRMLsNgi"/>
	<guideline x="200" y="0" angle="90" identifier="nLiMeZaZc6"/>
	<guideline x="250" y="0" angle="90" identifier="bykJOPiJZ9"/>
	<guideline x="300" y="0" angle="90" identifier="pND2Cwcmog"/>
	<guideline x="350" y="0" angle="90" identifier="MIqkzmL5tp"/>
	<guideline x="400" y="0" angle="90" identifier="ZV371Idcuh"/>
	<guideline x="450" y="0" angle="90" identifier="gnoWtqiX5C"/>
	<guideline x="500" y="0" angle="90" identifier="FWVGRDP6hQ"/>
	<guideline x="550" y="0" angle="90" identifier="bV5cmM28Oe"/>
	<guideline x="600" y="0" angle="90" identifier="yNsdOoYbfR"/>
	<guideline x="0" y="-250" angle="0" identifier="TA1XZyYqds"/>
	<guideline x="0" y="-200" angle="0" identifier="zEgk4itQCr"/>
	<guideline x="0" y="-150" angle="0" identifier="gpMCYLJ1uf"/>
	<guideline x="0" y="-100" angle="0" identifier="qWmCLdkRVd"/>
	<guideline x="0" y="-50" angle="0" identifier="1W7Ru4pBDw"/>
	<guideline x="0" y="0" angle="0" identifier="iR24OHRszd"/>
	<guideline x="0" y="50" angle="0" identifier="tKgZoi7kH6"/>
	<guideline x="0" y="100" angle="0" identifier="PtCkI5Xfby"/>
	<guideline x="0" y="150" angle="0" identifier="OTm8ntBrLl"/>
	<guideline x="0" y="200" angle="0" identifier="O1uV5aYcV2"/>
	<guideline x="0" y="250" angle="0" identifier="mukAqFuAR9"/>
	<guideline x="0" y="300" angle="0" identifier="2K6BNlinCG"/>
	<guideline x="0" y="350" angle="0" identifier="07K92yTCxH"/>
	<guideline x="0" y="400" angle="0" identifier="Miw6eJ3bfi"/>
	<guideline x="0" y="450" angle="0" identifier="9ZQmuhux3m"/>
	<guideline x="0" y="500" angle="0" identifier="3euxdEHcTn"/>
	<guideline x="0" y="550" angle="0" identifier="kpOJre74zG"/>
	<guideline x="0" y="600" angle="0" identifier="XclXzjYMw3"/>
	<guideline x="0" y="650" angle="0" identifier="b2OolOJEQJ"/>
	<guideline x="0" y="700" angle="0" identifier="6abgXDbRAK"/>
</glyph>
<glyph name="germandbls" format="2">
	<unicode hex="00DF"/>
	<advance width="600"/>
	<outline>
		<contour>
			<point x="219" y="676" type="qcurve"/>
			<point x="144.3731343284" y="676"/>
			<point x="69" y="625.1850725582"/>
			<point x="69" y="578" type="qcurve" smooth="yes"/>
			<point x="69" y="11" type="line" smooth="yes"/>
			<point x="69" y="6.5223880597"/>
			<point x="75.5223880597" y="0"/>
			<point x="80" y="0" type="qcurve" smooth="yes"/>
			<point x="114.328358209" y="0"/>
			<point x="184.671641791" y="0"/>
			<point x="219" y="0" type="qcurve"/>
			<point x="219" y="24.6268656716"/>
			<point x="219" y="75.3731343284"/>
			<point x="219" y="100" type="qcurve"/>
			<point x="219" y="540" type="line"/>
			<point x="219" y="573.8308457711"/>
			<point x="219" y="642.1691542289"/>
		</contour>
		<contour>
			<point x="312" y="770" type="qcurve" smooth="yes"/>
			<point x="191.8507462687" y="770"/>
			<point x="69" y="658.2076573654"/>
			<point x="69" y="578" type="qcurve" smooth="yes"/>
			<point x="69" y="568.5472636816"/>
			<point x="124.9701492537" y="540"/>
			<point x="219" y="540" type="qcurve"/>
			<point x="219" y="592.2388059701"/>
			<point x="264.3134328358" y="627"/>
			<point x="327" y="627" type="qcurve" smooth="yes"/>
			<point x="374.0149253731" y="627"/>
			<point x="407" y="614.6567164179"/>
			<point x="407" y="596" type="qcurve" smooth="yes"/>
			<point x="407" y="587.7910447761"/>
			<point x="407" y="554.1940298507"/>
			<point x="407" y="543" type="qcurve"/>
			<point x="465.2089552239" y="543"/>
			<point x="537" y="590.6119402985"/>
			<point x="537" y="613" type="qcurve" smooth="yes"/>
			<point x="537" y="713"/>
			<point x="388.8656716418" y="770"/>
		</contour>
		<contour>
			<point x="281" y="388" type="line" smooth="yes"/>
			<point x="281" y="365.6119402985"/>
			<point x="347.5406057946" y="327"/>
			<point x="420" y="327" type="qcurve"/>
			<point x="420" y="348.3412106136"/>
			<point x="420" y="378.1305970149"/>
			<point x="420" y="398" type="qcurve" smooth="yes"/>
			<point x="420" y="405.6322930801"/>
			<point x="434.7978526053" y="423.9695879474"/>
			<point x="457" y="443" type="qcurve" smooth="yes"/>
			<point x="485" y="467" type="line" smooth="yes"/>
			<point x="516.9275503517" y="494.36647173"/>
			<point x="537" y="562.0811161584"/>
			<point x="537" y="587" type="qcurve" smooth="yes"/>
			<point x="537" y="613" type="line" smooth="yes"/>
			<point x="537" y="630.1641791045"/>
			<point x="489.0895522388" y="647.1343283582"/>
			<point x="407" y="624" type="qcurve"/>
			<point x="407" y="609.8208955224"/>
			<point x="407" y="606.447761194"/>
			<point x="407" y="596" type="qcurve" smooth="yes"/>
			<point x="407" y="581.8208955224"/>
			<point x="394.1492537313" y="563.9104477612"/>
			<point x="374" y="546" type="qcurve" smooth="yes"/>
			<point x="336" y="513" type="line" smooth="yes"/>
			<point x="308.7935558792" y="489.3733511582"/>
			<point x="281" y="439.8507462687"/>
			<point x="281" y="410" type="qcurve" smooth="yes"/>
		</contour>
		<contour>
			<point x="483" y="344" type="qcurve" smooth="yes"/>
			<point x="456" y="361" type="line" smooth="yes"/>
			<point x="435.2664150782" y="374.0544793952"/>
			<point x="420" y="390.7336999214"/>
			<point x="420" y="398" type="qcurve" smooth="yes"/>
			<point x="420" y="426.105010661"/>
			<point x="420" y="441.3272921109"/>
			<point x="420" y="455" type="qcurve"/>
			<point x="367.3715978929" y="455"/>
			<point x="281" y="426.0597014925"/>
			<point x="281" y="388" type="qcurve" smooth="yes"/>
			<point x="281" y="361.1343283582"/>
			<point x="308.223880597" y="298.6119402985"/>
			<point x="353" y="271" type="qcurve" smooth="yes"/>
			<point x="379" y="255" type="line" smooth="yes"/>
			<point x="410.3432835821" y="235.5970149254"/>
			<point x="430" y="210.3582089552"/>
			<point x="430" y="182" type="qcurve"/>
			<point x="430" y="172.2985074627"/>
			<point x="430" y="133.7014925373"/>
			<point x="430" y="124" type="qcurve"/>
			<point x="482.6530588482" y="122.4738243812"/>
			<point x="566" y="155.8507462687"/>
			<point x="566" y="176" type="qcurve" smooth="yes"/>
			<point x="566" y="233.6870249977"/>
			<point x="537.9703103643" y="309.3890638447"/>
		</contour>
		<contour>
			<point x="382" y="136" type="qcurve" smooth="yes"/>
			<point x="356.6268656716" y="136"/>
			<point x="322.671641791" y="145.0447761194"/>
			<point x="307" y="154" type="qcurve"/>
			<point x="287" y="154" type="line"/>
			<point x="287" y="124.8955223881"/>
			<point x="287" y="57.0597014925"/>
			<point x="287" y="19" type="qcurve" smooth="yes"/>
			<point x="287" y="16.7611940299"/>
			<point x="287.5074626866" y="13.4925373134"/>
			<point x="289" y="12" type="qcurve" smooth="yes"/>
			<point x="292.7877269828" y="8.2122730172"/>
			<point x="346.6492537313" y="-9"/>
			<point x="392" y="-9" type="qcurve" smooth="yes"/>
			<point x="466.6268656716" y="-9"/>
			<point x="566" y="74.4179104478"/>
			<point x="566" y="158" type="qcurve" smooth="yes"/>
			<point x="566" y="176" type="line" smooth="yes"/>
			<point x="566" y="206.5970149254"/>
			<point x="500.968465941" y="253"/>
			<point x="430" y="253" type="qcurve"/>
			<point x="430" y="225.3880597015"/>
			<point x="430" y="199.9104477612"/>
			<point x="430" y="182" type="qcurve" smooth="yes"/>
			<point x="430" y="161.1044776119"/>
			<point x="406.6268656716" y="136"/>
		</contour>
	</outline>
</glyph>
<glyph name="nhookleft" format="2">
	<unicode hex="0272"/>
	<advance width="600"/>
	<outline>
		<contour>
			<point x="38" y="-55" type="qcurve" smooth="yes"/>
			<point x="27.552238806" y="-55"/>
			<point x="13.2089552239" y="-51.9850746269"/>
			<point x="5" y="-49" type="qcurve"/>
			<point x="-15" y="-49" type="line"/>
			<point x="-15" y="-81.0895522388"/>
			<point x="-15" y="-146.6567164179"/>
			<point x="-15" y="-178" type="qcurve"/>
			<point x="-15" y="-180.2388059701"/>
			<point x="-13.4925373134" y="-184.5074626866"/>
			<point x="-12" y="-186" type="qcurve" smooth="yes"/>
			<point x="-5.2835820896" y="-192.7164179104"/>
			<point x="38.6119402985" y="-202"/>
			<point x="61" y="-202" type="qcurve" smooth="yes"/>
			<point x="70" y="-202" type="line" smooth="yes"/>
			<point x="149.8507462687" y="-202"/>
			<point x="230" y="-93.328358209"/>
			<point x="230" y="-9" type="qcurve" smooth="yes"/>
			<point x="230" y="4" type="line" smooth="yes"/>
			<point x="230" y="7.7313432836"/>
			<point x="184.1791044776" y="11"/>
			<point x="70" y="11" type="qcurve"/>
			<point x="70" y="-4" type="line" smooth="yes"/>
			<point x="70" y="-32.3582089552"/>
			<point x="52.9253731343" y="-55"/>
		</contour>
		<component base="n"/>
	</outline>
</glyph>
<glyph name="circumflexcomb" format="2">
	<unicode hex="0302"/>
	<outline>
		<contour>
			<point x="-89" y="608" type="line"/>
			<point x="-55.4179104478" y="640.8358208955"/>
			<point x="18.9850746269" y="713.9850746269"/>
			<point x="66" y="761" type="qcurve"/>
			<point x="27.9402985075" y="796.8208955224"/>
			<point x="-9.0298507463" y="810"/>
			<point x="-15" y="810" type="qcurve"/>
			<point x="-54" y="810" type="line"/>
			<point x="-73.4029850746" y="786.1194029851"/>
			<point x="-167.3582089552" y="671.8656716418"/>
			<point x="-189" y="645" type="qcurve" smooth="yes"/>
			<point x="-200.9402985075" y="630.0746268657"/>
			<point x="-207" y="621.4776119403"/>
			<point x="-207" y="617" type="qcurve" smooth="yes"/>
			<point x="-207" y="613.2686567164"/>
			<point x="-201.9701492537" y="608"/>
			<point x="-196" y="608" type="qcurve"/>
		</contour>
		<contour>
			<point x="217" y="608" type="qcurve"/>
			<point x="181.9253731343" y="651.2835820896"/>
			<point x="84.1791044776" y="770.8358208955"/>
			<point x="70" y="788" type="qcurve" smooth="yes"/>
			<point x="58.0597014925" y="802.1791044776"/>
			<point x="47.4626865672" y="810"/>
			<point x="40" y="810" type="qcurve" smooth="yes"/>
			<point x="-18" y="810" type="line"/>
			<point x="-21.7313432836" y="810"/>
			<point x="-46.8507462687" y="795.328358209"/>
			<point x="-67" y="761" type="qcurve"/>
			<point x="-19.2388059701" y="713.2388059701"/>
			<point x="60.328358209" y="634.671641791"/>
			<point x="76" y="619" type="qcurve" smooth="yes"/>
			<point x="82.7164179104" y="612.2835820896"/>
			<point x="93.8059701493" y="608"/>
			<point x="105" y="608" type="qcurve" smooth="yes"/>
			<point x="143.8059701493" y="608"/>
			<point x="196.1044776119" y="608"/>
		</contour>
	</outline>
	<anchor name="_top" x="0" y="549"/>
	<guideline x="-57" y="845" angle="238.3924977538" identifier="tldCEMaVZ4"/>
	<guideline x="3" y="788" angle="237.3390872783" identifier="doDw8DIvDW"/>
	<guideline x="15" y="755" angle="305.1806993612" identifier="EiuT2TNE8Y"/>
	<guideline x="67" y="837" angle="300.1686141491" identifier="dRHcXS4zrI"/>
</glyph>
<glyph name="dieresiscomb" format="2">
	<unicode hex="0308"/>
	<outline>
		<contour>
			<point x="-32" y="611" type="qcurve"/>
			<point x="-32" y="757" type="line" smooth="yes"/>
			<point x="-32" y="761.4776119403"/>
			<point x="-38.5223880597" y="768"/>
			<point x="-43" y="768" type="qcurve" smooth="yes"/>
			<point x="-78.8208955224" y="768"/>
			<point x="-152.1791044776" y="768"/>
			<point x="-188" y="768" type="qcurve"/>
			<point x="-188" y="622" type="line" smooth="yes"/>
			<point x="-188" y="617.5223880597"/>
			<point x="-181.4776119403" y="611"/>
			<point x="-177" y="611" type="qcurve" smooth="yes"/>
			<point x="-141.1791044776" y="611"/>
			<point x="-67.8208955224" y="611"/>
		</contour>
		<contour>
			<point x="188" y="611" type="qcurve"/>
			<point x="188" y="757" type="line" smooth="yes"/>
			<point x="188" y="761.4776119403"/>
			<point x="181.4776119403" y="768"/>
			<point x="177" y="768" type="qcurve" smooth="yes"/>
			<point x="141.1791044776" y="768"/>
			<point x="67.8208955224" y="768"/>
			<point x="32" y="768" type="qcurve"/>
			<point x="32" y="622" type="line" smooth="yes"/>
			<point x="32" y="617.5223880597"/>
			<point x="38.5223880597" y="611"/>
			<point x="43" y="611" type="qcurve" smooth="yes"/>
			<point x="78.8208955224" y="611"/>
			<point x="152.1791044776" y="611"/>
		</contour>
	</outline>
	<anchor name="_top" x="0" y="551"/>
</glyph>
<glyph name="radical" format="2">
	<unicode hex="221A"/>
	<advance width="600"/>
	<outline>
		<contour>
			<point x="30" y="450" type="qcurve"/>
			<point x="30" y="415.671641791"/>
			<point x="30" y="353.328358209"/>
			<point x="30" y="319" type="qcurve" smooth="yes"/>
			<point x="30" y="314.5223880597"/>
			<point x="36.5223880597" y="308"/>
			<point x="41" y="308" type="qcurve" smooth="yes"/>
			<point x="82.0447761194" y="308"/>
			<point x="174.9552238806" y="308"/>
			<point x="216" y="308" type="qcurve"/>
			<point x="216" y="408"/>
			<point x="212.223880597" y="450"/>
			<point x="207" y="450" type="qcurve" smooth="yes"/>
			<point x="173.4179104478" y="450"/>
			<point x="63.5820895522" y="450"/>
		</contour>
		<contour>
			<point x="221.7611940299" y="441.2089552239"/>
			<point x="213.7164179104" y="450"/>
			<point x="207" y="450" type="qcurve"/>
			<point x="196.552238806" y="450"/>
			<point x="148.1343283582" y="436.1044776119"/>
			<point x="75" y="407" type="qcurve"/>
			<point x="103.3582089552" y="308.4925373134"/>
			<point x="150.6865671642" y="145.5970149254"/>
			<point x="188" y="15" type="qcurve" smooth="yes"/>
			<point x="190.2388059701" y="7.5373134328"/>
			<point x="201.5373134328" y="0"/>
			<point x="209" y="0" type="qcurve" smooth="yes"/>
			<point x="238" y="0" type="line" smooth="yes"/>
			<point x="282.0298507463" y="0"/>
			<point x="397" y="59.4328358209"/>
			<point x="397" y="146" type="qcurve"/>
			<point x="368.6417910448" y="146"/>
			<point x="325.8955223881" y="146"/>
			<point x="305" y="146" type="qcurve" smooth="yes"/>
			<point x="299.776119403" y="146"/>
			<point x="293.4925373134" y="152.0298507463"/>
			<point x="292" y="158" type="qcurve" smooth="yes"/>
			<point x="268.8656716418" y="249.0447761194"/>
			<point x="247.1343283582" y="341.9552238806"/>
			<point x="224" y="433" type="qcurve" smooth="yes"/>
		</contour>
		<contour>
			<point x="597.2388059701" y="688.4626865672"/>
			<point x="590.2089552239" y="700"/>
			<point x="582" y="700" type="qcurve" smooth="yes"/>
			<point x="442" y="700" type="line"/>
			<point x="416.6268656716" y="590.2985074627"/>
			<point x="325.6119402985" y="210.7014925373"/>
			<point x="298" y="101" type="qcurve" smooth="yes"/>
			<point x="285.3134328358" y="50.2537313433"/>
			<point x="256.3731343284" y="11.9402985075"/>
			<point x="231" y="0" type="qcurve"/>
			<point x="407" y="0" type="line"/>
			<point x="442.8208955224" y="130.5970149254"/>
			<point x="559.1791044776" y="551.1492537313"/>
			<point x="595" y="681" type="qcurve" smooth="yes"/>
		</contour>
	</outline>
	<guideline x="0" y="0" angle="90" identifier="gQ7wWGhu0z"/>
	<guideline x="50" y="0" angle="90" identifier="3N0xJAHE5U"/>
	<guideline x="100" y="0" angle="90" identifier="M5MMnbhT4j"/>
	<guideline x="150" y="0" angle="90" identifier="3049iZhWMb"/>
	<guideline x="200" y="0" angle="90" identifier="KYNawH38kk"/>
	<guideline x="250" y="0" angle="90" identifier="3NbdVRBPO1"/>
	<guideline x="300" y="0" angle="90" identifier="mvhKSVrUtA"/>
	<guideline x="350" y="0" angle="90" identifier="Ma13uaQ3Fa"/>
	<guideline x="400" y="0" angle="90" identifier="5KLDJLqc8j"/>
	<guideline x="450" y="0" angle="90" identifier="rbE1z7lfdV"/>
	<guideline x="500" y="0" angle="90" identifier="uQOvh7TSNO"/>
	<guideline x="550" y="0" angle="90" identifier="IMGlyv10Jy"/>
	<guideline x="600" y="0" angle="90" identifier="AkSKbsXB8d"/>
	<guideline x="0" y="-250" angle="0" identifier="DKcCTcCIfA"/>
	<guideline x="0" y="-200" angle="0" identifier="WVc3yzwYfo"/>
	<guideline x="0" y="-150" angle="0" identifier="JDgEbJso73"/>
	<guideline x="0" y="-100" angle="0" identifier="ICOZ3No39P"/>
	<guideline x="0" y="-50" angle="0" identifier="i8GE9BODsA"/>
	<guideline x="0" y="0" angle="0" identifier="8XTKdaGCc7"/>
	<guideline x="0" y="50" angle="0" identifier="EuLno5f08e"/>
	<guideline x="0" y="100" angle="0" identifier="sXtLwXW5ZD"/>
	<guideline x="0" y="150" angle="0" identifier="TkDGSjZU1X"/>
	<guideline x="0" y="200" angle="0" identifier="Aqqcy0uDI1"/>
	<guideline x="0" y="250" angle="0" identifier="zCHo8rj4CW"/>
	<guideline x="0" y="300" angle="0" identifier="x7O1XGdkb6"/>
	<guideline x="0" y="350" angle="0" identifier="fyxBTqgIqj"/>
	<guideline x="0" y="400" angle="0" identifier="Cla4wqehZf"/>
	<guideline x="0" y="450" angle="0" identifier="x4lk7SsHq5"/>
	<guideline x="0" y="500" angle="0" identifier="Ii6obuObsg"/>
	<guideline x="0" y="550" angle="0" identifier="OZ9YrCdyv3"/>
	<guideline x="0" y="600" angle="0" identifier="NYRa7ngZ7o"/>
	<guideline x="0" y="650" angle="0" identifier="gMW4uBaqXB"/>
	<guideline x="0" y="700" angle="0" identifier="YrDkPC0m68"/>
</glyph>
<glyph name="a.curvy" format="2">
	<advance width="600"/>
	<outline>
		<contour>
			<point x="264" y="550" type="qcurve" smooth="yes"/>
			<point x="213.2537313433" y="550"/>
			<point x="94.9402985075" y="523.9402985075"/>
			<point x="83" y="512" type="qcurve" smooth="yes"/>
			<point x="81.5074626866" y="510.5074626866"/>
			<point x="80" y="506.2388059701"/>
			<point x="80" y="504" type="qcurve" smooth="yes"/>
			<point x="80" y="473.4029850746"/>
			<point x="80" y="410.5970149254"/>
			<point x="80" y="380" type="qcurve"/>
			<point x="100" y="380" type="line"/>
			<point x="135.0746268657" y="394.1791044776"/>
			<point x="219.6865671642" y="410"/>
			<point x="257" y="410" type="qcurve" smooth="yes"/>
			<point x="313.7164179104" y="410"/>
			<point x="359" y="378.2985074627"/>
			<point x="359" y="338" type="qcurve"/>
			<point x="459.7462686567" y="311.1343283582"/>
			<point x="514" y="308.328358209"/>
			<point x="514" y="324" type="qcurve" smooth="yes"/>
			<point x="514" y="444.8955223881"/>
			<point x="395.3432835821" y="550"/>
		</contour>
		<contour>
			<point x="200" y="155" type="qcurve" smooth="yes"/>
			<point x="200" y="183" type="line" smooth="yes"/>
			<point x="200" y="206.8805970149"/>
			<point x="200" y="243.3432835821"/>
			<point x="200" y="262" type="qcurve"/>
			<point x="137.3134328358" y="262"/>
			<point x="50" y="210.552238806"/>
			<point x="50" y="171" type="qcurve" smooth="yes"/>
			<point x="50" y="134" type="line" smooth="yes"/>
			<point x="50" y="72.0597014925"/>
			<point x="130.8059701493" y="-10"/>
			<point x="192" y="-10" type="qcurve" smooth="yes"/>
			<point x="259.1641791045" y="-10"/>
			<point x="353.0447761194" y="108.9104477612"/>
			<point x="362" y="141" type="qcurve"/>
			<point x="363.4925373134" y="145.4776119403"/>
			<point x="363.4925373134" y="154"/>
			<point x="362" y="154" type="qcurve"/>
			<point x="337.3731343284" y="139.0746268657"/>
			<point x="272.5671641791" y="125"/>
			<point x="236" y="125" type="qcurve" smooth="yes"/>
			<point x="215.8507462687" y="125"/>
			<point x="200" y="143.8059701493"/>
		</contour>
		<contour>
			<point x="384" y="286" type="qcurve" smooth="yes"/>
			<point x="371.3134328358" y="298.6865671642"/>
			<point x="271.6567164179" y="317"/>
			<point x="203" y="317" type="qcurve" smooth="yes"/>
			<point x="141.0597014925" y="317"/>
			<point x="51.4925373134" y="231.447761194"/>
			<point x="50" y="171" type="qcurve" smooth="yes"/>
			<point x="50" y="170.2537313433"/>
			<point x="103.7313432836" y="172.552238806"/>
			<point x="200" y="183" type="qcurve"/>
			<point x="200" y="197.1791044776"/>
			<point x="218.8358208955" y="217"/>
			<point x="236" y="217" type="qcurve" smooth="yes"/>
			<point x="272.5671641791" y="217"/>
			<point x="384.6268656716" y="217"/>
			<point x="410" y="217" type="qcurve"/>
			<point x="410" y="237.8955223881"/>
			<point x="397.4328358209" y="272.5671641791"/>
		</contour>
		<contour>
			<point x="514" y="372.5074626866"/>
			<point x="432.8805970149" y="439.5223880597"/>
			<point x="359" y="394" type="qcurve"/>
			<point x="359" y="316.3880597015"/>
			<point x="359" y="184.447761194"/>
			<point x="359" y="124" type="qcurve" smooth="yes"/>
			<point x="359" y="65.0447761194"/>
			<point x="424.5970149254" y="-10"/>
			<point x="494" y="-10" type="qcurve" smooth="yes"/>
			<point x="520.8656716418" y="-10"/>
			<point x="564.5373134328" y="0.5373134328"/>
			<point x="572" y="8" type="qcurve" smooth="yes"/>
			<point x="573.4925373134" y="9.4925373134"/>
			<point x="575" y="13.0149253731"/>
			<point x="575" y="16" type="qcurve" smooth="yes"/>
			<point x="575" y="157" type="line"/>
			<point x="553" y="157" type="line"/>
			<point x="547.0298507463" y="154.0149253731"/>
			<point x="535.9552238806" y="151"/>
			<point x="527" y="151" type="qcurve" smooth="yes"/>
			<point x="521.0298507463" y="151"/>
			<point x="514" y="158.2686567164"/>
			<point x="514" y="162" type="qcurve" smooth="yes"/>
			<point x="514" y="203.0447761194"/>
			<point x="514" y="282.9552238806"/>
			<point x="514" y="324" type="qcurve"/>
		</contour>
		<contour>
			<point x="396" y="198" type="line"/>
			<point x="332" y="104" type="line"/>
			<point x="374" y="104" type="line"/>
			<point x="419" y="196" type="line"/>
		</contour>
	</outline>
	<anchor name="top" x="300" y="551"/>
	<anchor name="ogonek" x="571" y="1"/>
	<anchor name="bottom" x="310" y="-1"/>
</glyph>
<glyph name="commaaboverightcomb.case" format="2">
	<outline>
		<contour>
			<point x="27" y="475" type="qcurve" smooth="yes"/>
			<point x="33.7164179104" y="475"/>
			<point x="41.5074626866" y="480.776119403"/>
			<point x="43" y="486" type="qcurve" smooth="yes"/>
			<point x="55.6865671642" y="540.4776119403"/>
			<point x="79.8208955224" y="632.7611940299"/>
			<point x="94" y="685" type="qcurve" smooth="yes"/>
			<point x="95.4925373134" y="690.9701492537"/>
			<point x="88.9701492537" y="700"/>
			<point x="83" y="700" type="qcurve" smooth="yes"/>
			<point x="43.447761194" y="700"/>
			<point x="-25.7014925373" y="700"/>
			<point x="-66" y="700" type="qcurve"/>
			<point x="-66" y="640.2985074627"/>
			<point x="-66" y="533.2089552239"/>
			<point x="-66" y="475" type="qcurve"/>
			<point x="-37.6417910448" y="475"/>
			<point x="9.8358208955" y="475"/>
		</contour>
	</outline>
	<anchor name="_caronslovak" x="0" y="550"/>
	<guideline x="0" y="0" angle="90" identifier="K11Ag8SI55"/>
	<guideline x="0" y="-250" angle="0" identifier="83XcT9aaEy"/>
	<guideline x="0" y="-200" angle="0" identifier="57wPOWhqZH"/>
	<guideline x="0" y="-150" angle="0" identifier="KjKzfPITmf"/>
	<guideline x="0" y="-100" angle="0" identifier="UjBiFk4mSx"/>
	<guideline x="0" y="-50" angle="0" identifier="IuZSt2X5A3"/>
	<guideline x="0" y="0" angle="0" identifier="WvDcoB3JqZ"/>
	<guideline x="0" y="50" angle="0" identifier="wGrLUzydXx"/>
	<guideline x="0" y="100" angle="0" identifier="fXFwkbMTyH"/>
	<guideline x="0" y="150" angle="0" identifier="EYFVOfUp0o"/>
	<guideline x="0" y="200" angle="0" identifier="ePLDuroXHz"/>
	<guideline x="0" y="250" angle="0" identifier="SaVoamkqom"/>
	<guideline x="0" y="300" angle="0" identifier="XTnWFwYwEK"/>
	<guideline x="0" y="350" angle="0" identifier="fFQIwP9oAi"/>
	<guideline x="0" y="400" angle="0" identifier="1vs1VcHUSw"/>
	<guideline x="0" y="450" angle="0" identifier="8Xkca4Blaj"/>
	<guideline x="0" y="500" angle="0" identifier="Iq47h7Wadk"/>
	<guideline x="0" y="550" angle="0" identifier="U6WQ0QADYZ"/>
	<guideline x="0" y="600" angle="0" identifier="gGFKgZruKD"/>
	<guideline x="0" y="650" angle="0" identifier="92aT2ZNCYI"/>
	<guideline x="0" y="700" angle="0" identifier="XhTBJE0gGf"/>
</glyph>
<glyph name="dollar.lower" format="2">
	<advance width="600"/>
	<outline>
		<contour>
			<point x="371" y="486" type="qcurve" smooth="yes"/>
			<point x="389" y="695" type="line" smooth="yes"/>
			<point x="389.7462686567" y="701.7164179104"/>
			<point x="383.4776119403" y="708"/>
			<point x="379" y="708" type="qcurve" smooth="yes"/>
			<point x="340.9402985075" y="708"/>
			<point x="299.2686567164" y="708"/>
			<point x="253" y="708" type="qcurve"/>
			<point x="255.2388059701" y="681.1343283582"/>
			<point x="258.7611940299" y="632.1194029851"/>
			<point x="261" y="606" type="qcurve" smooth="yes"/>
			<point x="275" y="449" type="line"/>
			<point x="318.2835820896" y="449"/>
			<point x="369.5074626866" y="467.3432835821"/>
		</contour>
		<contour>
			<point x="233" y="35" type="qcurve" smooth="yes"/>
			<point x="215" y="-174" type="line" smooth="yes"/>
			<point x="214.2537313433" y="-180.7164179104"/>
			<point x="220.5223880597" y="-187"/>
			<point x="225" y="-187" type="qcurve" smooth="yes"/>
			<point x="263.0597014925" y="-187"/>
			<point x="304.7313432836" y="-187"/>
			<point x="351" y="-187" type="qcurve"/>
			<point x="348.7611940299" y="-160.1343283582"/>
			<point x="345.2388059701" y="-111.1194029851"/>
			<point x="343" y="-85" type="qcurve" smooth="yes"/>
			<point x="329" y="72" type="line"/>
			<point x="285.7164179104" y="72"/>
			<point x="234.4925373134" y="53.6567164179"/>
		</contour>
		<component base="s"/>
	</outline>
</glyph>
<glyph name="f.italic" format="2">
	<advance width="600"/>
	<outline>
		<contour>
			<point x="309" y="588" type="qcurve"/>
			<point x="335.8656716418" y="612.6268656716"/>
			<point x="382.2089552239" y="630"/>
			<point x="424" y="630" type="qcurve" smooth="yes"/>
			<point x="458.328358209" y="630"/>
			<point x="523.4029850746" y="624.223880597"/>
			<point x="554" y="619" type="qcurve"/>
			<point x="574" y="619" type="line"/>
			<point x="574" y="649.5970149254"/>
			<point x="574" y="707.4179104478"/>
			<point x="574" y="741" type="qcurve"/>
			<point x="574" y="743.2388059701"/>
			<point x="572.4925373134" y="747.5074626866"/>
			<point x="571" y="749" type="qcurve" smooth="yes"/>
			<point x="563.5373134328" y="756.4626865672"/>
			<point x="494.9253731343" y="770"/>
			<point x="430" y="770" type="qcurve" smooth="yes"/>
			<point x="346.4179104478" y="770"/>
			<point x="242.5820895522" y="654.4179104478"/>
		</contour>
		<contour>
			<point x="199" y="558" type="qcurve" smooth="yes"/>
			<point x="199" y="-89" type="line" smooth="yes"/>
			<point x="199" y="-93.4776119403"/>
			<point x="205.5223880597" y="-100"/>
			<point x="210" y="-100" type="qcurve" smooth="yes"/>
			<point x="244.328358209" y="-100"/>
			<point x="314.671641791" y="-100"/>
			<point x="349" y="-100" type="qcurve"/>
			<point x="349" y="-75.3731343284"/>
			<point x="349" y="-24.6268656716"/>
			<point x="349" y="0" type="qcurve"/>
			<point x="349" y="515" type="line"/>
			<point x="349" y="522.4626865672"/>
			<point x="349" y="538.5373134328"/>
			<point x="349" y="546" type="qcurve"/>
			<point x="349" y="596.7462686567"/>
			<point x="379.223880597" y="630"/>
			<point x="424" y="630" type="qcurve"/>
			<point x="453.1044776119" y="718.0597014925"/>
			<point x="450.1492537313" y="770"/>
			<point x="430" y="770" type="qcurve" smooth="yes"/>
			<point x="295.671641791" y="770"/>
			<point x="199" y="634.1194029851"/>
		</contour>
		<contour>
			<point x="70" y="520" type="line"/>
			<point x="70" y="485.671641791"/>
			<point x="70" y="425.328358209"/>
			<point x="70" y="391" type="qcurve"/>
			<point x="70" y="388.7611940299"/>
			<point x="71.5074626866" y="384.4925373134"/>
			<point x="73" y="383" type="qcurve" smooth="yes"/>
			<point x="74.4925373134" y="381.5074626866"/>
			<point x="78.7611940299" y="380"/>
			<point x="81" y="380" type="qcurve"/>
			<point x="530" y="380" type="line"/>
			<point x="530" y="414.328358209"/>
			<point x="530" y="474.671641791"/>
			<point x="530" y="509" type="qcurve"/>
			<point x="530" y="513.4776119403"/>
			<point x="523.4776119403" y="520"/>
			<point x="519" y="520" type="qcurve"/>
		</contour>
	</outline>
	<guideline x="0" y="0" angle="90" identifier="BOC7XfPF0l"/>
	<guideline x="50" y="0" angle="90" identifier="ejNw4oGQMI"/>
	<guideline x="100" y="0" angle="90" identifier="4RPhRS0a6Y"/>
	<guideline x="150" y="0" angle="90" identifier="RDLSQ87AcC"/>
	<guideline x="200" y="0" angle="90" identifier="T2WOAZNYUi"/>
	<guideline x="250" y="0" angle="90" identifier="fk57WafQ3B"/>
	<guideline x="300" y="0" angle="90" identifier="T5r6USqoU8"/>
	<guideline x="350" y="0" angle="90" identifier="NkRaW4iGbU"/>
	<guideline x="400" y="0" angle="90" identifier="KWXFSfYhrB"/>
	<guideline x="450" y="0" angle="90" identifier="FPsxLD6hjR"/>
	<guideline x="500" y="0" angle="90" identifier="SPwibkau24"/>
	<guideline x="550" y="0" angle="90" identifier="4yltY03r9A"/>
	<guideline x="600" y="0" angle="90" identifier="Qu0yzslXsX"/>
	<guideline x="0" y="-250" angle="0" identifier="Gi8A3upIrI"/>
	<guideline x="0" y="-200" angle="0" identifier="1ti2ELLtkJ"/>
	<guideline x="0" y="-150" angle="0" identifier="APaSFKggWA"/>
	<guideline x="0" y="-100" angle="0" identifier="86AucW1q99"/>
	<guideline x="0" y="-50" angle="0" identifier="ju0RDFJqZx"/>
	<guideline x="0" y="0" angle="0" identifier="Z0Z0ebNhKX"/>
	<guideline x="0" y="50" angle="0" identifier="w1CBvjcX3Y"/>
	<guideline x="0" y="100" angle="0" identifier="RyCu18cnQD"/>
	<guideline x="0" y="150" angle="0" identifier="GVjXIwCXbi"/>
	<guideline x="0" y="200" angle="0" identifier="rvZ7yxEpjT"/>
	<guideline x="0" y="250" angle="0" identifier="0v5oZEWMlL"/>
	<guideline x="0" y="300" angle="0" identifier="c1SdJt6zsS"/>
	<guideline x="0" y="350" angle="0" identifier="O1NC8Bsslz"/>
	<guideline x="0" y="400" angle="0" identifier="EB9NoeBtsn"/>
	<guideline x="0" y="450" angle="0" identifier="Jkx72YHMGT"/>
	<guideline x="0" y="500" angle="0" identifier="sYDUITHSTd"/>
	<guideline x="0" y="550" angle="0" identifier="RCyAbgLlgc"/>
	<guideline x="0" y="600" angle="0" identifier="fcjFZPRqKm"/>
	<guideline x="0" y="650" angle="0" identifier="vkF5WwmhBz"/>
	<guideline x="0" y="700" angle="0" identifier="UsSBkrzP0a"/>
</glyph>
<glyph name="i.italic" format="2">
	<advance width="600"/>
	<outline>
		<contour>
			<point x="50" y="540" type="qcurve"/>
			<point x="50" y="507.9104477612"/>
			<point x="50" y="441.0895522388"/>
			<point x="50" y="409" type="qcurve" smooth="yes"/>
			<point x="50" y="404.5223880597"/>
			<point x="56.5223880597" y="398"/>
			<point x="61" y="398" type="qcurve" smooth="yes"/>
			<point x="118.4626865672" y="398"/>
			<point x="197.5373134328" y="398"/>
			<point x="255" y="398" type="qcurve"/>
			<point x="255" y="496.5074626866"/>
			<point x="244.9253731343" y="540"/>
			<point x="230" y="540" type="qcurve" smooth="yes"/>
			<point x="185.9701492537" y="540"/>
			<point x="94.0298507463" y="540"/>
		</contour>
		<contour>
			<point x="377" y="537" type="qcurve" smooth="yes"/>
			<point x="375.5074626866" y="538.4925373134"/>
			<point x="371.2388059701" y="540"/>
			<point x="369" y="540" type="qcurve" smooth="yes"/>
			<point x="230" y="540" type="line"/>
			<point x="230" y="166" type="line" smooth="yes"/>
			<point x="230" y="110.776119403"/>
			<point x="312.0895522388" y="67"/>
			<point x="380" y="67" type="qcurve"/>
			<point x="380" y="92.3731343284"/>
			<point x="380" y="147.3731343284"/>
			<point x="380" y="172" type="qcurve" smooth="yes"/>
			<point x="380" y="529" type="line" smooth="yes"/>
			<point x="380" y="531.2388059701"/>
			<point x="378.4925373134" y="535.5074626866"/>
		</contour>
		<contour>
			<point x="550" y="142" type="qcurve"/>
			<point x="530" y="142" type="line"/>
			<point x="479.2537313433" y="142"/>
			<point x="470.447761194" y="142"/>
			<point x="410" y="142" type="qcurve" smooth="yes"/>
			<point x="391.3432835821" y="142"/>
			<point x="380" y="156.328358209"/>
			<point x="380" y="172" type="qcurve"/>
			<point x="274.0298507463" y="186.9253731343"/>
			<point x="230" y="179.4328358209"/>
			<point x="230" y="166" type="qcurve"/>
			<point x="230" y="82.4179104478"/>
			<point x="308.4328358209" y="0"/>
			<point x="395" y="0" type="qcurve" smooth="yes"/>
			<point x="539" y="0" type="line"/>
			<point x="541.2388059701" y="0"/>
			<point x="545.5074626866" y="1.5074626866"/>
			<point x="547" y="3" type="qcurve" smooth="yes"/>
			<point x="548.4925373134" y="4.4925373134"/>
			<point x="550" y="8.7611940299"/>
			<point x="550" y="11" type="qcurve"/>
			<point x="550" y="43.0895522388"/>
			<point x="550" y="109.9104477612"/>
		</contour>
		<contour>
			<point x="384" y="650" type="qcurve"/>
			<point x="384" y="789" type="line" smooth="yes"/>
			<point x="384" y="793.4776119403"/>
			<point x="377.4776119403" y="800"/>
			<point x="373" y="800" type="qcurve" smooth="yes"/>
			<point x="331.2089552239" y="800"/>
			<point x="245.7910447761" y="800"/>
			<point x="204" y="800" type="qcurve"/>
			<point x="204" y="661" type="line" smooth="yes"/>
			<point x="204" y="656.5223880597"/>
			<point x="210.5223880597" y="650"/>
			<point x="215" y="650" type="qcurve" smooth="yes"/>
			<point x="256.7910447761" y="650"/>
			<point x="342.2089552239" y="650"/>
		</contour>
	</outline>
</glyph>
